<svg xmlns="http://www.w3.org/2000/svg" xmlns:xlink="http://www.w3.org/1999/xlink" width="1587" zoomAndPan="magnify" viewBox="0 0 1190.25 1683.749949" height="2245" preserveAspectRatio="xMidYMid meet" version="1.0"><defs><g/><clipPath id="4a553d1960"><path d="M 0 0.40625 L 1189.5 0.40625 L 1189.5 1683.09375 L 0 1683.09375 Z M 0 0.40625 " clip-rule="nonzero"/></clipPath></defs><g clip-path="url(#4a553d1960)"><path fill="#ffffff" d="M 0 0.40625 L 1189.5 0.40625 L 1189.5 1683.09375 L 0 1683.09375 Z M 0 0.40625 " fill-opacity="1" fill-rule="nonzero"/><path fill="#ebe8e6" d="M 0 0.40625 L 1189.5 0.40625 L 1189.5 1683.09375 L 0 1683.09375 Z M 0 0.40625 " fill-opacity="1" fill-rule="nonzero"/></g><g fill="#000000" fill-opacity="1"><g transform="translate(374.829607, 918.040279)"><g><path d="M 19.015625 0 C 31.09375 0 39.476562 -7.628906 39.476562 -19.246094 C 39.476562 -30.863281 31.09375 -38.550781 19.015625 -38.550781 L 3.816406 -38.550781 L 3.816406 0 Z M 12.023438 -31.324219 L 19.015625 -31.324219 C 26.933594 -31.324219 31.09375 -26.066406 31.09375 -19.246094 C 31.09375 -12.714844 26.644531 -7.222656 19.015625 -7.222656 L 12.023438 -7.222656 Z M 12.023438 -31.324219 "/></g></g></g><g fill="#000000" fill-opacity="1"><g transform="translate(416.326833, 918.040279)"><g><path d="M 27.742188 0 L 27.742188 -18.03125 C 27.742188 -26.066406 21.90625 -28.609375 15.546875 -28.609375 C 11.15625 -28.609375 6.761719 -27.222656 3.351562 -24.214844 L 6.125 -19.304688 C 8.496094 -21.5 11.269531 -22.597656 14.277344 -22.597656 C 17.972656 -22.597656 20.402344 -20.75 20.402344 -17.917969 L 20.402344 -14.042969 C 18.550781 -16.296875 15.257812 -17.453125 11.558594 -17.453125 C 7.109375 -17.453125 1.847656 -15.085938 1.847656 -8.554688 C 1.847656 -2.3125 7.109375 0.695312 11.558594 0.695312 C 15.199219 0.695312 18.496094 -0.636719 20.402344 -2.890625 L 20.402344 0 Z M 20.402344 -6.703125 C 19.1875 -5.085938 16.875 -4.277344 14.507812 -4.277344 C 11.617188 -4.277344 9.246094 -5.78125 9.246094 -8.378906 C 9.246094 -11.039062 11.617188 -12.597656 14.507812 -12.597656 C 16.875 -12.597656 19.1875 -11.789062 20.402344 -10.171875 Z M 20.402344 -6.703125 "/></g></g></g><g fill="#000000" fill-opacity="1"><g transform="translate(447.70984, 918.040279)"><g><path d="M 7.28125 -32.019531 C 9.710938 -32.019531 11.675781 -33.984375 11.675781 -36.410156 C 11.675781 -38.839844 9.710938 -40.804688 7.28125 -40.804688 C 4.914062 -40.804688 2.890625 -38.839844 2.890625 -36.410156 C 2.890625 -33.984375 4.914062 -32.019531 7.28125 -32.019531 Z M 10.980469 0 L 10.980469 -27.914062 L 3.640625 -27.914062 L 3.640625 0 Z M 10.980469 0 "/></g></g></g><g fill="#000000" fill-opacity="1"><g transform="translate(462.332126, 918.040279)"><g><path d="M 10.980469 0 L 10.980469 -38.550781 L 3.640625 -38.550781 L 3.640625 0 Z M 10.980469 0 "/></g></g></g><g fill="#000000" fill-opacity="1"><g transform="translate(476.954412, 918.040279)"><g><path d="M 2.660156 10.921875 C 3.582031 11.15625 5.433594 11.328125 6.300781 11.328125 C 11.097656 11.210938 14.796875 9.824219 16.875 4.566406 L 29.996094 -27.914062 L 22.078125 -27.914062 L 14.796875 -8.496094 L 7.511719 -27.914062 L -0.347656 -27.914062 L 10.980469 0.40625 L 9.941406 2.773438 C 9.246094 4.277344 7.976562 4.796875 6.070312 4.796875 C 5.375 4.796875 4.390625 4.625 3.757812 4.335938 Z M 2.660156 10.921875 "/></g></g></g><g fill="#000000" fill-opacity="1"><g transform="translate(506.60354, 918.040279)"><g/></g></g><g fill="#000000" fill-opacity="1"><g transform="translate(521.399209, 918.040279)"><g><path d="M 35.023438 0 L 26.355469 -14.679688 C 30.515625 -15.664062 34.792969 -19.304688 34.792969 -26.125 C 34.792969 -33.289062 29.878906 -38.550781 21.847656 -38.550781 L 3.816406 -38.550781 L 3.816406 0 L 12.023438 0 L 12.023438 -13.8125 L 18.03125 -13.8125 L 25.605469 0 Z M 26.414062 -26.179688 C 26.414062 -22.945312 23.925781 -20.863281 20.632812 -20.863281 L 12.023438 -20.863281 L 12.023438 -31.5 L 20.632812 -31.5 C 23.925781 -31.5 26.414062 -29.417969 26.414062 -26.179688 Z M 26.414062 -26.179688 "/></g></g></g><g fill="#000000" fill-opacity="1"><g transform="translate(558.561765, 918.040279)"><g><path d="M 1.847656 -13.988281 C 1.847656 -5.027344 8.265625 0.695312 16.761719 0.695312 C 21.09375 0.695312 25.429688 -0.578125 28.261719 -3.179688 L 25.027344 -7.917969 C 23.234375 -6.183594 20.171875 -5.144531 17.570312 -5.144531 C 12.832031 -5.144531 10 -8.089844 9.535156 -11.617188 L 30.285156 -11.617188 L 30.285156 -13.234375 C 30.285156 -22.367188 24.621094 -28.609375 16.296875 -28.609375 C 7.800781 -28.609375 1.847656 -22.078125 1.847656 -13.988281 Z M 16.296875 -22.773438 C 21.152344 -22.773438 23.003906 -19.246094 23.175781 -16.585938 L 9.421875 -16.585938 C 9.765625 -19.363281 11.734375 -22.773438 16.296875 -22.773438 Z M 16.296875 -22.773438 "/></g></g></g><g fill="#000000" fill-opacity="1"><g transform="translate(590.522711, 918.040279)"><g><path d="M 18.320312 -21.5 L 18.320312 -27.914062 L 12.65625 -27.914062 L 12.65625 -29.300781 C 12.65625 -31.960938 14.042969 -33.347656 16.125 -33.347656 C 16.992188 -33.347656 17.859375 -33.175781 18.496094 -32.769531 L 19.996094 -37.972656 C 18.667969 -38.664062 16.761719 -39.128906 14.679688 -39.128906 C 9.191406 -39.128906 5.257812 -35.488281 5.257812 -29.417969 L 5.257812 -27.914062 L 0.636719 -27.914062 L 0.636719 -21.5 L 5.257812 -21.5 L 5.257812 0 L 12.65625 0 L 12.65625 -21.5 Z M 18.320312 -21.5 "/></g></g></g><g fill="#000000" fill-opacity="1"><g transform="translate(609.421865, 918.040279)"><g><path d="M 10.980469 0 L 10.980469 -38.550781 L 3.640625 -38.550781 L 3.640625 0 Z M 10.980469 0 "/></g></g></g><g fill="#000000" fill-opacity="1"><g transform="translate(624.044151, 918.040279)"><g><path d="M 1.847656 -13.988281 C 1.847656 -5.027344 8.265625 0.695312 16.761719 0.695312 C 21.09375 0.695312 25.429688 -0.578125 28.261719 -3.179688 L 25.027344 -7.917969 C 23.234375 -6.183594 20.171875 -5.144531 17.570312 -5.144531 C 12.832031 -5.144531 10 -8.089844 9.535156 -11.617188 L 30.285156 -11.617188 L 30.285156 -13.234375 C 30.285156 -22.367188 24.621094 -28.609375 16.296875 -28.609375 C 7.800781 -28.609375 1.847656 -22.078125 1.847656 -13.988281 Z M 16.296875 -22.773438 C 21.152344 -22.773438 23.003906 -19.246094 23.175781 -16.585938 L 9.421875 -16.585938 C 9.765625 -19.363281 11.734375 -22.773438 16.296875 -22.773438 Z M 16.296875 -22.773438 "/></g></g></g><g fill="#000000" fill-opacity="1"><g transform="translate(656.005097, 918.040279)"><g><path d="M 1.847656 -13.988281 C 1.847656 -5.375 8.035156 0.695312 16.644531 0.695312 C 22.367188 0.695312 25.835938 -1.792969 27.683594 -4.390625 L 22.886719 -8.84375 C 21.558594 -6.992188 19.535156 -5.835938 16.992188 -5.835938 C 12.542969 -5.835938 9.421875 -9.132812 9.421875 -13.988281 C 9.421875 -18.839844 12.542969 -22.078125 16.992188 -22.078125 C 19.535156 -22.078125 21.558594 -20.980469 22.886719 -19.074219 L 27.683594 -23.523438 C 25.835938 -26.125 22.367188 -28.609375 16.644531 -28.609375 C 8.035156 -28.609375 1.847656 -22.539062 1.847656 -13.988281 Z M 1.847656 -13.988281 "/></g></g></g><g fill="#000000" fill-opacity="1"><g transform="translate(684.845078, 918.040279)"><g><path d="M 13.003906 0.695312 C 16.066406 0.695312 18.03125 -0.117188 19.128906 -1.097656 L 17.570312 -6.648438 C 17.164062 -6.242188 16.125 -5.835938 15.027344 -5.835938 C 13.410156 -5.835938 12.484375 -7.167969 12.484375 -8.902344 L 12.484375 -21.5 L 18.148438 -21.5 L 18.148438 -27.914062 L 12.484375 -27.914062 L 12.484375 -35.542969 L 5.085938 -35.542969 L 5.085938 -27.914062 L 0.460938 -27.914062 L 0.460938 -21.5 L 5.085938 -21.5 L 5.085938 -6.933594 C 5.085938 -1.964844 7.859375 0.695312 13.003906 0.695312 Z M 13.003906 0.695312 "/></g></g></g><g fill="#000000" fill-opacity="1"><g transform="translate(704.379986, 918.040279)"><g><path d="M 7.28125 -32.019531 C 9.710938 -32.019531 11.675781 -33.984375 11.675781 -36.410156 C 11.675781 -38.839844 9.710938 -40.804688 7.28125 -40.804688 C 4.914062 -40.804688 2.890625 -38.839844 2.890625 -36.410156 C 2.890625 -33.984375 4.914062 -32.019531 7.28125 -32.019531 Z M 10.980469 0 L 10.980469 -27.914062 L 3.640625 -27.914062 L 3.640625 0 Z M 10.980469 0 "/></g></g></g><g fill="#000000" fill-opacity="1"><g transform="translate(719.002272, 918.040279)"><g><path d="M 16.585938 0.695312 C 25.835938 0.695312 31.382812 -6.011719 31.382812 -13.988281 C 31.382812 -21.90625 25.835938 -28.609375 16.585938 -28.609375 C 7.398438 -28.609375 1.847656 -21.90625 1.847656 -13.988281 C 1.847656 -6.011719 7.398438 0.695312 16.585938 0.695312 Z M 16.585938 -5.835938 C 12.023438 -5.835938 9.480469 -9.59375 9.480469 -13.988281 C 9.480469 -18.320312 12.023438 -22.078125 16.585938 -22.078125 C 21.152344 -22.078125 23.753906 -18.320312 23.753906 -13.988281 C 23.753906 -9.59375 21.152344 -5.835938 16.585938 -5.835938 Z M 16.585938 -5.835938 "/></g></g></g><g fill="#000000" fill-opacity="1"><g transform="translate(752.176946, 918.040279)"><g><path d="M 29.824219 0 L 29.824219 -19.707031 C 29.824219 -25.140625 26.875 -28.609375 20.75 -28.609375 C 16.183594 -28.609375 12.773438 -26.414062 10.980469 -24.273438 L 10.980469 -27.914062 L 3.640625 -27.914062 L 3.640625 0 L 10.980469 0 L 10.980469 -18.785156 C 12.195312 -20.460938 14.449219 -22.078125 17.339844 -22.078125 C 20.460938 -22.078125 22.484375 -20.75 22.484375 -16.875 L 22.484375 0 Z M 29.824219 0 "/></g></g></g><g fill="#000000" fill-opacity="1"><g transform="translate(785.640585, 918.040279)"><g><path d="M 2.714844 -23.636719 C 2.714844 -21.09375 4.855469 -18.957031 7.398438 -18.957031 C 9.941406 -18.957031 12.078125 -21.09375 12.078125 -23.636719 C 12.078125 -26.179688 9.941406 -28.320312 7.398438 -28.320312 C 4.855469 -28.320312 2.714844 -26.179688 2.714844 -23.636719 Z M 2.714844 -4.046875 C 2.714844 -1.503906 4.855469 0.636719 7.398438 0.636719 C 9.941406 0.636719 12.078125 -1.503906 12.078125 -4.046875 C 12.078125 -6.589844 9.941406 -8.726562 7.398438 -8.726562 C 4.855469 -8.726562 2.714844 -6.589844 2.714844 -4.046875 Z M 2.714844 -4.046875 "/></g></g></g><g fill="#000000" fill-opacity="1"><g transform="translate(800.151433, 918.040279)"><g/></g></g><g fill="#000000" fill-opacity="1"><g transform="translate(134.664543, 998.23974)"><g><path d="M 35.023438 0 L 26.355469 -14.679688 C 30.515625 -15.664062 34.792969 -19.304688 34.792969 -26.125 C 34.792969 -33.289062 29.878906 -38.550781 21.847656 -38.550781 L 3.816406 -38.550781 L 3.816406 0 L 12.023438 0 L 12.023438 -13.8125 L 18.03125 -13.8125 L 25.605469 0 Z M 26.414062 -26.179688 C 26.414062 -22.945312 23.925781 -20.863281 20.632812 -20.863281 L 12.023438 -20.863281 L 12.023438 -31.5 L 20.632812 -31.5 C 23.925781 -31.5 26.414062 -29.417969 26.414062 -26.179688 Z M 26.414062 -26.179688 "/></g></g></g><g fill="#000000" fill-opacity="1"><g transform="translate(171.827099, 998.23974)"><g><path d="M 1.847656 -13.988281 C 1.847656 -5.027344 8.265625 0.695312 16.761719 0.695312 C 21.09375 0.695312 25.429688 -0.578125 28.261719 -3.179688 L 25.027344 -7.917969 C 23.234375 -6.183594 20.171875 -5.144531 17.570312 -5.144531 C 12.832031 -5.144531 10 -8.089844 9.535156 -11.617188 L 30.285156 -11.617188 L 30.285156 -13.234375 C 30.285156 -22.367188 24.621094 -28.609375 16.296875 -28.609375 C 7.800781 -28.609375 1.847656 -22.078125 1.847656 -13.988281 Z M 16.296875 -22.773438 C 21.152344 -22.773438 23.003906 -19.246094 23.175781 -16.585938 L 9.421875 -16.585938 C 9.765625 -19.363281 11.734375 -22.773438 16.296875 -22.773438 Z M 16.296875 -22.773438 "/></g></g></g><g fill="#000000" fill-opacity="1"><g transform="translate(203.788057, 998.23974)"><g><path d="M 18.320312 -21.5 L 18.320312 -27.914062 L 12.65625 -27.914062 L 12.65625 -29.300781 C 12.65625 -31.960938 14.042969 -33.347656 16.125 -33.347656 C 16.992188 -33.347656 17.859375 -33.175781 18.496094 -32.769531 L 19.996094 -37.972656 C 18.667969 -38.664062 16.761719 -39.128906 14.679688 -39.128906 C 9.191406 -39.128906 5.257812 -35.488281 5.257812 -29.417969 L 5.257812 -27.914062 L 0.636719 -27.914062 L 0.636719 -21.5 L 5.257812 -21.5 L 5.257812 0 L 12.65625 0 L 12.65625 -21.5 Z M 18.320312 -21.5 "/></g></g></g><g fill="#000000" fill-opacity="1"><g transform="translate(222.687211, 998.23974)"><g><path d="M 10.980469 0 L 10.980469 -38.550781 L 3.640625 -38.550781 L 3.640625 0 Z M 10.980469 0 "/></g></g></g><g fill="#000000" fill-opacity="1"><g transform="translate(237.309497, 998.23974)"><g><path d="M 1.847656 -13.988281 C 1.847656 -5.027344 8.265625 0.695312 16.761719 0.695312 C 21.09375 0.695312 25.429688 -0.578125 28.261719 -3.179688 L 25.027344 -7.917969 C 23.234375 -6.183594 20.171875 -5.144531 17.570312 -5.144531 C 12.832031 -5.144531 10 -8.089844 9.535156 -11.617188 L 30.285156 -11.617188 L 30.285156 -13.234375 C 30.285156 -22.367188 24.621094 -28.609375 16.296875 -28.609375 C 7.800781 -28.609375 1.847656 -22.078125 1.847656 -13.988281 Z M 16.296875 -22.773438 C 21.152344 -22.773438 23.003906 -19.246094 23.175781 -16.585938 L 9.421875 -16.585938 C 9.765625 -19.363281 11.734375 -22.773438 16.296875 -22.773438 Z M 16.296875 -22.773438 "/></g></g></g><g fill="#000000" fill-opacity="1"><g transform="translate(269.270454, 998.23974)"><g><path d="M 1.847656 -13.988281 C 1.847656 -5.375 8.035156 0.695312 16.644531 0.695312 C 22.367188 0.695312 25.835938 -1.792969 27.683594 -4.390625 L 22.886719 -8.84375 C 21.558594 -6.992188 19.535156 -5.835938 16.992188 -5.835938 C 12.542969 -5.835938 9.421875 -9.132812 9.421875 -13.988281 C 9.421875 -18.839844 12.542969 -22.078125 16.992188 -22.078125 C 19.535156 -22.078125 21.558594 -20.980469 22.886719 -19.074219 L 27.683594 -23.523438 C 25.835938 -26.125 22.367188 -28.609375 16.644531 -28.609375 C 8.035156 -28.609375 1.847656 -22.539062 1.847656 -13.988281 Z M 1.847656 -13.988281 "/></g></g></g><g fill="#000000" fill-opacity="1"><g transform="translate(298.110446, 998.23974)"><g><path d="M 13.003906 0.695312 C 16.066406 0.695312 18.03125 -0.117188 19.128906 -1.097656 L 17.570312 -6.648438 C 17.164062 -6.242188 16.125 -5.835938 15.027344 -5.835938 C 13.410156 -5.835938 12.484375 -7.167969 12.484375 -8.902344 L 12.484375 -21.5 L 18.148438 -21.5 L 18.148438 -27.914062 L 12.484375 -27.914062 L 12.484375 -35.542969 L 5.085938 -35.542969 L 5.085938 -27.914062 L 0.460938 -27.914062 L 0.460938 -21.5 L 5.085938 -21.5 L 5.085938 -6.933594 C 5.085938 -1.964844 7.859375 0.695312 13.003906 0.695312 Z M 13.003906 0.695312 "/></g></g></g><g fill="#000000" fill-opacity="1"><g transform="translate(317.645354, 998.23974)"><g/></g></g><g fill="#000000" fill-opacity="1"><g transform="translate(332.441035, 998.23974)"><g><path d="M 16.585938 0.695312 C 25.835938 0.695312 31.382812 -6.011719 31.382812 -13.988281 C 31.382812 -21.90625 25.835938 -28.609375 16.585938 -28.609375 C 7.398438 -28.609375 1.847656 -21.90625 1.847656 -13.988281 C 1.847656 -6.011719 7.398438 0.695312 16.585938 0.695312 Z M 16.585938 -5.835938 C 12.023438 -5.835938 9.480469 -9.59375 9.480469 -13.988281 C 9.480469 -18.320312 12.023438 -22.078125 16.585938 -22.078125 C 21.152344 -22.078125 23.753906 -18.320312 23.753906 -13.988281 C 23.753906 -9.59375 21.152344 -5.835938 16.585938 -5.835938 Z M 16.585938 -5.835938 "/></g></g></g><g fill="#000000" fill-opacity="1"><g transform="translate(365.615686, 998.23974)"><g><path d="M 29.824219 0 L 29.824219 -19.707031 C 29.824219 -25.140625 26.875 -28.609375 20.75 -28.609375 C 16.183594 -28.609375 12.773438 -26.414062 10.980469 -24.273438 L 10.980469 -27.914062 L 3.640625 -27.914062 L 3.640625 0 L 10.980469 0 L 10.980469 -18.785156 C 12.195312 -20.460938 14.449219 -22.078125 17.339844 -22.078125 C 20.460938 -22.078125 22.484375 -20.75 22.484375 -16.875 L 22.484375 0 Z M 29.824219 0 "/></g></g></g><g fill="#000000" fill-opacity="1"><g transform="translate(399.079324, 998.23974)"><g/></g></g><g fill="#000000" fill-opacity="1"><g transform="translate(413.874993, 998.23974)"><g><path d="M 13.003906 0.695312 C 16.066406 0.695312 18.03125 -0.117188 19.128906 -1.097656 L 17.570312 -6.648438 C 17.164062 -6.242188 16.125 -5.835938 15.027344 -5.835938 C 13.410156 -5.835938 12.484375 -7.167969 12.484375 -8.902344 L 12.484375 -21.5 L 18.148438 -21.5 L 18.148438 -27.914062 L 12.484375 -27.914062 L 12.484375 -35.542969 L 5.085938 -35.542969 L 5.085938 -27.914062 L 0.460938 -27.914062 L 0.460938 -21.5 L 5.085938 -21.5 L 5.085938 -6.933594 C 5.085938 -1.964844 7.859375 0.695312 13.003906 0.695312 Z M 13.003906 0.695312 "/></g></g></g><g fill="#000000" fill-opacity="1"><g transform="translate(433.409901, 998.23974)"><g><path d="M 29.878906 0 L 29.878906 -19.824219 C 29.878906 -25.257812 26.933594 -28.609375 20.804688 -28.609375 C 16.242188 -28.609375 12.773438 -26.414062 10.980469 -24.273438 L 10.980469 -38.550781 L 3.640625 -38.550781 L 3.640625 0 L 10.980469 0 L 10.980469 -18.785156 C 12.253906 -20.460938 14.507812 -22.078125 17.339844 -22.078125 C 20.519531 -22.078125 22.539062 -20.863281 22.539062 -16.992188 L 22.539062 0 Z M 29.878906 0 "/></g></g></g><g fill="#000000" fill-opacity="1"><g transform="translate(466.931341, 998.23974)"><g><path d="M 1.847656 -13.988281 C 1.847656 -5.027344 8.265625 0.695312 16.761719 0.695312 C 21.09375 0.695312 25.429688 -0.578125 28.261719 -3.179688 L 25.027344 -7.917969 C 23.234375 -6.183594 20.171875 -5.144531 17.570312 -5.144531 C 12.832031 -5.144531 10 -8.089844 9.535156 -11.617188 L 30.285156 -11.617188 L 30.285156 -13.234375 C 30.285156 -22.367188 24.621094 -28.609375 16.296875 -28.609375 C 7.800781 -28.609375 1.847656 -22.078125 1.847656 -13.988281 Z M 16.296875 -22.773438 C 21.152344 -22.773438 23.003906 -19.246094 23.175781 -16.585938 L 9.421875 -16.585938 C 9.765625 -19.363281 11.734375 -22.773438 16.296875 -22.773438 Z M 16.296875 -22.773438 "/></g></g></g><g fill="#000000" fill-opacity="1"><g transform="translate(498.89231, 998.23974)"><g/></g></g><g fill="#000000" fill-opacity="1"><g transform="translate(513.687979, 998.23974)"><g><path d="M 30.226562 0 L 30.226562 -38.550781 L 22.828125 -38.550781 L 22.828125 -24.332031 C 20.632812 -27.164062 17.511719 -28.609375 14.21875 -28.609375 C 7.109375 -28.609375 1.847656 -23.0625 1.847656 -13.929688 C 1.847656 -4.625 7.167969 0.695312 14.21875 0.695312 C 17.570312 0.695312 20.632812 -0.808594 22.828125 -3.527344 L 22.828125 0 Z M 22.828125 -9.015625 C 21.558594 -7.167969 18.957031 -5.835938 16.472656 -5.835938 C 12.3125 -5.835938 9.421875 -9.132812 9.421875 -13.929688 C 9.421875 -18.785156 12.3125 -22.078125 16.472656 -22.078125 C 18.957031 -22.078125 21.558594 -20.75 22.828125 -18.898438 Z M 22.828125 -9.015625 "/></g></g></g><g fill="#000000" fill-opacity="1"><g transform="translate(547.556208, 998.23974)"><g><path d="M 27.742188 0 L 27.742188 -18.03125 C 27.742188 -26.066406 21.90625 -28.609375 15.546875 -28.609375 C 11.15625 -28.609375 6.761719 -27.222656 3.351562 -24.214844 L 6.125 -19.304688 C 8.496094 -21.5 11.269531 -22.597656 14.277344 -22.597656 C 17.972656 -22.597656 20.402344 -20.75 20.402344 -17.917969 L 20.402344 -14.042969 C 18.550781 -16.296875 15.257812 -17.453125 11.558594 -17.453125 C 7.109375 -17.453125 1.847656 -15.085938 1.847656 -8.554688 C 1.847656 -2.3125 7.109375 0.695312 11.558594 0.695312 C 15.199219 0.695312 18.496094 -0.636719 20.402344 -2.890625 L 20.402344 0 Z M 20.402344 -6.703125 C 19.1875 -5.085938 16.875 -4.277344 14.507812 -4.277344 C 11.617188 -4.277344 9.246094 -5.78125 9.246094 -8.378906 C 9.246094 -11.039062 11.617188 -12.597656 14.507812 -12.597656 C 16.875 -12.597656 19.1875 -11.789062 20.402344 -10.171875 Z M 20.402344 -6.703125 "/></g></g></g><g fill="#000000" fill-opacity="1"><g transform="translate(578.939203, 998.23974)"><g><path d="M 2.660156 10.921875 C 3.582031 11.15625 5.433594 11.328125 6.300781 11.328125 C 11.097656 11.210938 14.796875 9.824219 16.875 4.566406 L 29.996094 -27.914062 L 22.078125 -27.914062 L 14.796875 -8.496094 L 7.511719 -27.914062 L -0.347656 -27.914062 L 10.980469 0.40625 L 9.941406 2.773438 C 9.246094 4.277344 7.976562 4.796875 6.070312 4.796875 C 5.375 4.796875 4.390625 4.625 3.757812 4.335938 Z M 2.660156 10.921875 "/></g></g></g><g fill="#000000" fill-opacity="1"><g transform="translate(608.58832, 998.23974)"><g><path d="M 8.148438 -21.671875 C 8.148438 -21.671875 10.519531 -34.042969 10.519531 -35.140625 C 10.519531 -37.335938 8.667969 -39.128906 6.53125 -39.128906 C 4.335938 -39.128906 2.542969 -37.335938 2.542969 -35.140625 C 2.542969 -34.042969 4.914062 -21.671875 4.914062 -21.671875 Z M 8.148438 -21.671875 "/></g></g></g><g fill="#000000" fill-opacity="1"><g transform="translate(621.592332, 998.23974)"><g><path d="M 1.214844 -3.640625 C 4.160156 -0.925781 8.84375 0.695312 13.699219 0.695312 C 21.441406 0.695312 25.777344 -3.121094 25.777344 -8.265625 C 25.777344 -15.199219 19.363281 -16.472656 14.566406 -17.398438 C 11.445312 -18.03125 9.246094 -18.667969 9.246094 -20.402344 C 9.246094 -22.019531 10.980469 -23.003906 13.640625 -23.003906 C 17.050781 -23.003906 20.230469 -21.558594 21.90625 -19.765625 L 24.792969 -24.792969 C 22.078125 -26.992188 18.320312 -28.609375 13.582031 -28.609375 C 6.242188 -28.609375 2.136719 -24.503906 2.136719 -19.824219 C 2.136719 -13.175781 8.324219 -12.023438 13.121094 -11.097656 C 16.296875 -10.460938 18.726562 -9.765625 18.726562 -7.800781 C 18.726562 -6.070312 17.222656 -4.96875 14.042969 -4.96875 C 10.578125 -4.96875 6.414062 -6.878906 4.390625 -8.785156 Z M 1.214844 -3.640625 "/></g></g></g><g fill="#000000" fill-opacity="1"><g transform="translate(649.160851, 998.23974)"><g/></g></g><g fill="#000000" fill-opacity="1"><g transform="translate(663.95652, 998.23974)"><g><path d="M 29.878906 0 L 29.878906 -19.824219 C 29.878906 -25.257812 26.933594 -28.609375 20.804688 -28.609375 C 16.242188 -28.609375 12.773438 -26.414062 10.980469 -24.273438 L 10.980469 -38.550781 L 3.640625 -38.550781 L 3.640625 0 L 10.980469 0 L 10.980469 -18.785156 C 12.253906 -20.460938 14.507812 -22.078125 17.339844 -22.078125 C 20.519531 -22.078125 22.539062 -20.863281 22.539062 -16.992188 L 22.539062 0 Z M 29.878906 0 "/></g></g></g><g fill="#000000" fill-opacity="1"><g transform="translate(697.477938, 998.23974)"><g><path d="M 7.28125 -32.019531 C 9.710938 -32.019531 11.675781 -33.984375 11.675781 -36.410156 C 11.675781 -38.839844 9.710938 -40.804688 7.28125 -40.804688 C 4.914062 -40.804688 2.890625 -38.839844 2.890625 -36.410156 C 2.890625 -33.984375 4.914062 -32.019531 7.28125 -32.019531 Z M 10.980469 0 L 10.980469 -27.914062 L 3.640625 -27.914062 L 3.640625 0 Z M 10.980469 0 "/></g></g></g><g fill="#000000" fill-opacity="1"><g transform="translate(712.100224, 998.23974)"><g><path d="M 3.0625 7.167969 C 6.53125 10.230469 10.289062 11.328125 15.085938 11.328125 C 21.960938 11.328125 30.167969 8.726562 30.167969 -1.90625 L 30.167969 -27.914062 L 22.773438 -27.914062 L 22.773438 -24.332031 C 20.519531 -27.164062 17.511719 -28.609375 14.160156 -28.609375 C 7.109375 -28.609375 1.847656 -23.523438 1.847656 -14.390625 C 1.847656 -5.085938 7.167969 -0.171875 14.160156 -0.171875 C 17.570312 -0.171875 20.574219 -1.792969 22.773438 -4.566406 L 22.773438 -1.734375 C 22.773438 3.757812 18.609375 5.316406 15.085938 5.316406 C 11.558594 5.316406 8.613281 4.335938 6.359375 1.847656 Z M 22.773438 -9.882812 C 21.558594 -8.089844 18.898438 -6.703125 16.472656 -6.703125 C 12.3125 -6.703125 9.421875 -9.59375 9.421875 -14.390625 C 9.421875 -19.1875 12.3125 -22.078125 16.472656 -22.078125 C 18.898438 -22.078125 21.558594 -20.75 22.773438 -18.898438 Z M 22.773438 -9.882812 "/></g></g></g><g fill="#000000" fill-opacity="1"><g transform="translate(745.910629, 998.23974)"><g><path d="M 29.878906 0 L 29.878906 -19.824219 C 29.878906 -25.257812 26.933594 -28.609375 20.804688 -28.609375 C 16.242188 -28.609375 12.773438 -26.414062 10.980469 -24.273438 L 10.980469 -38.550781 L 3.640625 -38.550781 L 3.640625 0 L 10.980469 0 L 10.980469 -18.785156 C 12.253906 -20.460938 14.507812 -22.078125 17.339844 -22.078125 C 20.519531 -22.078125 22.539062 -20.863281 22.539062 -16.992188 L 22.539062 0 Z M 29.878906 0 "/></g></g></g><g fill="#000000" fill-opacity="1"><g transform="translate(779.432093, 998.23974)"><g><path d="M 1.214844 -3.640625 C 4.160156 -0.925781 8.84375 0.695312 13.699219 0.695312 C 21.441406 0.695312 25.777344 -3.121094 25.777344 -8.265625 C 25.777344 -15.199219 19.363281 -16.472656 14.566406 -17.398438 C 11.445312 -18.03125 9.246094 -18.667969 9.246094 -20.402344 C 9.246094 -22.019531 10.980469 -23.003906 13.640625 -23.003906 C 17.050781 -23.003906 20.230469 -21.558594 21.90625 -19.765625 L 24.792969 -24.792969 C 22.078125 -26.992188 18.320312 -28.609375 13.582031 -28.609375 C 6.242188 -28.609375 2.136719 -24.503906 2.136719 -19.824219 C 2.136719 -13.175781 8.324219 -12.023438 13.121094 -11.097656 C 16.296875 -10.460938 18.726562 -9.765625 18.726562 -7.800781 C 18.726562 -6.070312 17.222656 -4.96875 14.042969 -4.96875 C 10.578125 -4.96875 6.414062 -6.878906 4.390625 -8.785156 Z M 1.214844 -3.640625 "/></g></g></g><g fill="#000000" fill-opacity="1"><g transform="translate(821.796235, 998.23974)"><g><path d="M 27.742188 0 L 27.742188 -18.03125 C 27.742188 -26.066406 21.90625 -28.609375 15.546875 -28.609375 C 11.15625 -28.609375 6.761719 -27.222656 3.351562 -24.214844 L 6.125 -19.304688 C 8.496094 -21.5 11.269531 -22.597656 14.277344 -22.597656 C 17.972656 -22.597656 20.402344 -20.75 20.402344 -17.917969 L 20.402344 -14.042969 C 18.550781 -16.296875 15.257812 -17.453125 11.558594 -17.453125 C 7.109375 -17.453125 1.847656 -15.085938 1.847656 -8.554688 C 1.847656 -2.3125 7.109375 0.695312 11.558594 0.695312 C 15.199219 0.695312 18.496094 -0.636719 20.402344 -2.890625 L 20.402344 0 Z M 20.402344 -6.703125 C 19.1875 -5.085938 16.875 -4.277344 14.507812 -4.277344 C 11.617188 -4.277344 9.246094 -5.78125 9.246094 -8.378906 C 9.246094 -11.039062 11.617188 -12.597656 14.507812 -12.597656 C 16.875 -12.597656 19.1875 -11.789062 20.402344 -10.171875 Z M 20.402344 -6.703125 "/></g></g></g><g fill="#000000" fill-opacity="1"><g transform="translate(853.179229, 998.23974)"><g><path d="M 29.824219 0 L 29.824219 -19.707031 C 29.824219 -25.140625 26.875 -28.609375 20.75 -28.609375 C 16.183594 -28.609375 12.773438 -26.414062 10.980469 -24.273438 L 10.980469 -27.914062 L 3.640625 -27.914062 L 3.640625 0 L 10.980469 0 L 10.980469 -18.785156 C 12.195312 -20.460938 14.449219 -22.078125 17.339844 -22.078125 C 20.460938 -22.078125 22.484375 -20.75 22.484375 -16.875 L 22.484375 0 Z M 29.824219 0 "/></g></g></g><g fill="#000000" fill-opacity="1"><g transform="translate(886.642867, 998.23974)"><g><path d="M 30.226562 0 L 30.226562 -38.550781 L 22.828125 -38.550781 L 22.828125 -24.332031 C 20.632812 -27.164062 17.511719 -28.609375 14.21875 -28.609375 C 7.109375 -28.609375 1.847656 -23.0625 1.847656 -13.929688 C 1.847656 -4.625 7.167969 0.695312 14.21875 0.695312 C 17.570312 0.695312 20.632812 -0.808594 22.828125 -3.527344 L 22.828125 0 Z M 22.828125 -9.015625 C 21.558594 -7.167969 18.957031 -5.835938 16.472656 -5.835938 C 12.3125 -5.835938 9.421875 -9.132812 9.421875 -13.929688 C 9.421875 -18.785156 12.3125 -22.078125 16.472656 -22.078125 C 18.957031 -22.078125 21.558594 -20.75 22.828125 -18.898438 Z M 22.828125 -9.015625 "/></g></g></g><g fill="#000000" fill-opacity="1"><g transform="translate(920.511097, 998.23974)"><g/></g></g><g fill="#000000" fill-opacity="1"><g transform="translate(935.306766, 998.23974)"><g><path d="M 10.980469 0 L 10.980469 -38.550781 L 3.640625 -38.550781 L 3.640625 0 Z M 10.980469 0 "/></g></g></g><g fill="#000000" fill-opacity="1"><g transform="translate(949.929052, 998.23974)"><g><path d="M 16.585938 0.695312 C 25.835938 0.695312 31.382812 -6.011719 31.382812 -13.988281 C 31.382812 -21.90625 25.835938 -28.609375 16.585938 -28.609375 C 7.398438 -28.609375 1.847656 -21.90625 1.847656 -13.988281 C 1.847656 -6.011719 7.398438 0.695312 16.585938 0.695312 Z M 16.585938 -5.835938 C 12.023438 -5.835938 9.480469 -9.59375 9.480469 -13.988281 C 9.480469 -18.320312 12.023438 -22.078125 16.585938 -22.078125 C 21.152344 -22.078125 23.753906 -18.320312 23.753906 -13.988281 C 23.753906 -9.59375 21.152344 -5.835938 16.585938 -5.835938 Z M 16.585938 -5.835938 "/></g></g></g><g fill="#000000" fill-opacity="1"><g transform="translate(983.103703, 998.23974)"><g><path d="M 35.949219 0 L 44.445312 -27.914062 L 36.816406 -27.914062 L 31.613281 -9.132812 L 25.488281 -27.914062 L 18.957031 -27.914062 L 12.832031 -9.132812 L 7.628906 -27.914062 L 0 -27.914062 L 8.496094 0 L 16.355469 0 L 22.25 -19.015625 L 28.148438 0 Z M 35.949219 0 "/></g></g></g><g fill="#000000" fill-opacity="1"><g transform="translate(1027.548535, 998.23974)"><g><path d="M 1.214844 -3.640625 C 4.160156 -0.925781 8.84375 0.695312 13.699219 0.695312 C 21.441406 0.695312 25.777344 -3.121094 25.777344 -8.265625 C 25.777344 -15.199219 19.363281 -16.472656 14.566406 -17.398438 C 11.445312 -18.03125 9.246094 -18.667969 9.246094 -20.402344 C 9.246094 -22.019531 10.980469 -23.003906 13.640625 -23.003906 C 17.050781 -23.003906 20.230469 -21.558594 21.90625 -19.765625 L 24.792969 -24.792969 C 22.078125 -26.992188 18.320312 -28.609375 13.582031 -28.609375 C 6.242188 -28.609375 2.136719 -24.503906 2.136719 -19.824219 C 2.136719 -13.175781 8.324219 -12.023438 13.121094 -11.097656 C 16.296875 -10.460938 18.726562 -9.765625 18.726562 -7.800781 C 18.726562 -6.070312 17.222656 -4.96875 14.042969 -4.96875 C 10.578125 -4.96875 6.414062 -6.878906 4.390625 -8.785156 Z M 1.214844 -3.640625 "/></g></g></g></svg>