<svg xmlns="http://www.w3.org/2000/svg" xmlns:xlink="http://www.w3.org/1999/xlink" width="1587" zoomAndPan="magnify" viewBox="0 0 1190.25 1683.749949" height="2245" preserveAspectRatio="xMidYMid meet" version="1.0"><defs><g/><clipPath id="ef655a69ed"><path d="M 0 0.40625 L 1189.5 0.40625 L 1189.5 1683.09375 L 0 1683.09375 Z M 0 0.40625 " clip-rule="nonzero"/></clipPath></defs><g clip-path="url(#ef655a69ed)"><path fill="#ffffff" d="M 0 0.40625 L 1189.5 0.40625 L 1189.5 1683.09375 L 0 1683.09375 Z M 0 0.40625 " fill-opacity="1" fill-rule="nonzero"/><path fill="#ebe8e6" d="M 0 0.40625 L 1189.5 0.40625 L 1189.5 1683.09375 L 0 1683.09375 Z M 0 0.40625 " fill-opacity="1" fill-rule="nonzero"/></g><g fill="#000000" fill-opacity="1"><g transform="translate(310.018886, 918.040231)"><g><path d="M 42.25 -19.246094 C 42.25 -30.863281 33.753906 -39.1875 22.078125 -39.1875 C 10.460938 -39.1875 1.964844 -30.863281 1.964844 -19.246094 C 1.964844 -7.628906 10.460938 0.695312 22.078125 0.695312 C 25.429688 0.695312 28.550781 0 31.269531 -1.273438 L 34.332031 2.371094 L 40.050781 -2.3125 L 37.21875 -5.605469 C 40.398438 -9.074219 42.25 -13.8125 42.25 -19.246094 Z M 22.078125 -6.589844 C 14.96875 -6.589844 10.402344 -12.078125 10.402344 -19.246094 C 10.402344 -26.46875 14.96875 -31.902344 22.078125 -31.902344 C 29.1875 -31.902344 33.8125 -26.46875 33.8125 -19.246094 C 33.8125 -16.472656 33.117188 -13.929688 31.84375 -11.90625 L 27.453125 -17.050781 L 21.730469 -12.425781 L 26.125 -7.28125 C 24.910156 -6.820312 23.523438 -6.589844 22.078125 -6.589844 Z M 22.078125 -6.589844 "/></g></g></g><g fill="#000000" fill-opacity="1"><g transform="translate(354.232509, 918.040231)"><g><path d="M 29.824219 0 L 29.824219 -27.914062 L 22.484375 -27.914062 L 22.484375 -9.015625 C 21.210938 -7.398438 18.957031 -5.835938 16.125 -5.835938 C 13.003906 -5.835938 10.980469 -7.109375 10.980469 -10.980469 L 10.980469 -27.914062 L 3.640625 -27.914062 L 3.640625 -8.089844 C 3.640625 -2.660156 6.53125 0.695312 12.65625 0.695312 C 17.222656 0.695312 20.574219 -1.386719 22.484375 -3.527344 L 22.484375 0 Z M 29.824219 0 "/></g></g></g><g fill="#000000" fill-opacity="1"><g transform="translate(387.696147, 918.040231)"><g><path d="M 7.28125 -32.019531 C 9.710938 -32.019531 11.675781 -33.984375 11.675781 -36.410156 C 11.675781 -38.839844 9.710938 -40.804688 7.28125 -40.804688 C 4.914062 -40.804688 2.890625 -38.839844 2.890625 -36.410156 C 2.890625 -33.984375 4.914062 -32.019531 7.28125 -32.019531 Z M 10.980469 0 L 10.980469 -27.914062 L 3.640625 -27.914062 L 3.640625 0 Z M 10.980469 0 "/></g></g></g><g fill="#000000" fill-opacity="1"><g transform="translate(402.318433, 918.040231)"><g><path d="M 1.847656 -13.988281 C 1.847656 -5.375 8.035156 0.695312 16.644531 0.695312 C 22.367188 0.695312 25.835938 -1.792969 27.683594 -4.390625 L 22.886719 -8.84375 C 21.558594 -6.992188 19.535156 -5.835938 16.992188 -5.835938 C 12.542969 -5.835938 9.421875 -9.132812 9.421875 -13.988281 C 9.421875 -18.839844 12.542969 -22.078125 16.992188 -22.078125 C 19.535156 -22.078125 21.558594 -20.980469 22.886719 -19.074219 L 27.683594 -23.523438 C 25.835938 -26.125 22.367188 -28.609375 16.644531 -28.609375 C 8.035156 -28.609375 1.847656 -22.539062 1.847656 -13.988281 Z M 1.847656 -13.988281 "/></g></g></g><g fill="#000000" fill-opacity="1"><g transform="translate(431.158425, 918.040231)"><g><path d="M 30.921875 0 L 19.535156 -15.257812 L 30.574219 -27.914062 L 21.558594 -27.914062 L 10.980469 -15.488281 L 10.980469 -38.550781 L 3.640625 -38.550781 L 3.640625 0 L 10.980469 0 L 10.980469 -7.167969 L 14.332031 -10.75 L 21.730469 0 Z M 30.921875 0 "/></g></g></g><g fill="#000000" fill-opacity="1"><g transform="translate(462.07906, 918.040231)"><g/></g></g><g fill="#000000" fill-opacity="1"><g transform="translate(476.874729, 918.040231)"><g><path d="M 45.601562 0 L 45.601562 -38.550781 L 34.042969 -38.550781 L 24.679688 -14.507812 L 15.316406 -38.550781 L 3.816406 -38.550781 L 3.816406 0 L 12.023438 0 L 12.023438 -27.742188 L 22.886719 0 L 26.46875 0 L 37.335938 -27.742188 L 37.335938 0 Z M 45.601562 0 "/></g></g></g><g fill="#000000" fill-opacity="1"><g transform="translate(526.289962, 918.040231)"><g><path d="M 7.28125 -32.019531 C 9.710938 -32.019531 11.675781 -33.984375 11.675781 -36.410156 C 11.675781 -38.839844 9.710938 -40.804688 7.28125 -40.804688 C 4.914062 -40.804688 2.890625 -38.839844 2.890625 -36.410156 C 2.890625 -33.984375 4.914062 -32.019531 7.28125 -32.019531 Z M 10.980469 0 L 10.980469 -27.914062 L 3.640625 -27.914062 L 3.640625 0 Z M 10.980469 0 "/></g></g></g><g fill="#000000" fill-opacity="1"><g transform="translate(540.912248, 918.040231)"><g><path d="M 29.824219 0 L 29.824219 -19.707031 C 29.824219 -25.140625 26.875 -28.609375 20.75 -28.609375 C 16.183594 -28.609375 12.773438 -26.414062 10.980469 -24.273438 L 10.980469 -27.914062 L 3.640625 -27.914062 L 3.640625 0 L 10.980469 0 L 10.980469 -18.785156 C 12.195312 -20.460938 14.449219 -22.078125 17.339844 -22.078125 C 20.460938 -22.078125 22.484375 -20.75 22.484375 -16.875 L 22.484375 0 Z M 29.824219 0 "/></g></g></g><g fill="#000000" fill-opacity="1"><g transform="translate(574.375887, 918.040231)"><g><path d="M 30.226562 0 L 30.226562 -38.550781 L 22.828125 -38.550781 L 22.828125 -24.332031 C 20.632812 -27.164062 17.511719 -28.609375 14.21875 -28.609375 C 7.109375 -28.609375 1.847656 -23.0625 1.847656 -13.929688 C 1.847656 -4.625 7.167969 0.695312 14.21875 0.695312 C 17.570312 0.695312 20.632812 -0.808594 22.828125 -3.527344 L 22.828125 0 Z M 22.828125 -9.015625 C 21.558594 -7.167969 18.957031 -5.835938 16.472656 -5.835938 C 12.3125 -5.835938 9.421875 -9.132812 9.421875 -13.929688 C 9.421875 -18.785156 12.3125 -22.078125 16.472656 -22.078125 C 18.957031 -22.078125 21.558594 -20.75 22.828125 -18.898438 Z M 22.828125 -9.015625 "/></g></g></g><g fill="#000000" fill-opacity="1"><g transform="translate(608.244094, 918.040231)"><g><path d="M 18.320312 -21.5 L 18.320312 -27.914062 L 12.65625 -27.914062 L 12.65625 -29.300781 C 12.65625 -31.960938 14.042969 -33.347656 16.125 -33.347656 C 16.992188 -33.347656 17.859375 -33.175781 18.496094 -32.769531 L 19.996094 -37.972656 C 18.667969 -38.664062 16.761719 -39.128906 14.679688 -39.128906 C 9.191406 -39.128906 5.257812 -35.488281 5.257812 -29.417969 L 5.257812 -27.914062 L 0.636719 -27.914062 L 0.636719 -21.5 L 5.257812 -21.5 L 5.257812 0 L 12.65625 0 L 12.65625 -21.5 Z M 18.320312 -21.5 "/></g></g></g><g fill="#000000" fill-opacity="1"><g transform="translate(627.143248, 918.040231)"><g><path d="M 29.824219 0 L 29.824219 -27.914062 L 22.484375 -27.914062 L 22.484375 -9.015625 C 21.210938 -7.398438 18.957031 -5.835938 16.125 -5.835938 C 13.003906 -5.835938 10.980469 -7.109375 10.980469 -10.980469 L 10.980469 -27.914062 L 3.640625 -27.914062 L 3.640625 -8.089844 C 3.640625 -2.660156 6.53125 0.695312 12.65625 0.695312 C 17.222656 0.695312 20.574219 -1.386719 22.484375 -3.527344 L 22.484375 0 Z M 29.824219 0 "/></g></g></g><g fill="#000000" fill-opacity="1"><g transform="translate(660.606886, 918.040231)"><g><path d="M 10.980469 0 L 10.980469 -38.550781 L 3.640625 -38.550781 L 3.640625 0 Z M 10.980469 0 "/></g></g></g><g fill="#000000" fill-opacity="1"><g transform="translate(675.229172, 918.040231)"><g/></g></g><g fill="#000000" fill-opacity="1"><g transform="translate(690.024841, 918.040231)"><g><path d="M 12.023438 0 L 12.023438 -13.8125 L 21.847656 -13.8125 C 30.167969 -13.8125 34.792969 -19.417969 34.792969 -26.125 C 34.792969 -32.886719 30.226562 -38.550781 21.847656 -38.550781 L 3.816406 -38.550781 L 3.816406 0 Z M 26.414062 -26.179688 C 26.414062 -22.945312 23.984375 -20.863281 20.75 -20.863281 L 12.023438 -20.863281 L 12.023438 -31.5 L 20.75 -31.5 C 23.984375 -31.5 26.414062 -29.359375 26.414062 -26.179688 Z M 26.414062 -26.179688 "/></g></g></g><g fill="#000000" fill-opacity="1"><g transform="translate(726.089273, 918.040231)"><g><path d="M 27.742188 0 L 27.742188 -18.03125 C 27.742188 -26.066406 21.90625 -28.609375 15.546875 -28.609375 C 11.15625 -28.609375 6.761719 -27.222656 3.351562 -24.214844 L 6.125 -19.304688 C 8.496094 -21.5 11.269531 -22.597656 14.277344 -22.597656 C 17.972656 -22.597656 20.402344 -20.75 20.402344 -17.917969 L 20.402344 -14.042969 C 18.550781 -16.296875 15.257812 -17.453125 11.558594 -17.453125 C 7.109375 -17.453125 1.847656 -15.085938 1.847656 -8.554688 C 1.847656 -2.3125 7.109375 0.695312 11.558594 0.695312 C 15.199219 0.695312 18.496094 -0.636719 20.402344 -2.890625 L 20.402344 0 Z M 20.402344 -6.703125 C 19.1875 -5.085938 16.875 -4.277344 14.507812 -4.277344 C 11.617188 -4.277344 9.246094 -5.78125 9.246094 -8.378906 C 9.246094 -11.039062 11.617188 -12.597656 14.507812 -12.597656 C 16.875 -12.597656 19.1875 -11.789062 20.402344 -10.171875 Z M 20.402344 -6.703125 "/></g></g></g><g fill="#000000" fill-opacity="1"><g transform="translate(757.472267, 918.040231)"><g><path d="M 29.824219 0 L 29.824219 -27.914062 L 22.484375 -27.914062 L 22.484375 -9.015625 C 21.210938 -7.398438 18.957031 -5.835938 16.125 -5.835938 C 13.003906 -5.835938 10.980469 -7.109375 10.980469 -10.980469 L 10.980469 -27.914062 L 3.640625 -27.914062 L 3.640625 -8.089844 C 3.640625 -2.660156 6.53125 0.695312 12.65625 0.695312 C 17.222656 0.695312 20.574219 -1.386719 22.484375 -3.527344 L 22.484375 0 Z M 29.824219 0 "/></g></g></g><g fill="#000000" fill-opacity="1"><g transform="translate(790.935906, 918.040231)"><g><path d="M 1.214844 -3.640625 C 4.160156 -0.925781 8.84375 0.695312 13.699219 0.695312 C 21.441406 0.695312 25.777344 -3.121094 25.777344 -8.265625 C 25.777344 -15.199219 19.363281 -16.472656 14.566406 -17.398438 C 11.445312 -18.03125 9.246094 -18.667969 9.246094 -20.402344 C 9.246094 -22.019531 10.980469 -23.003906 13.640625 -23.003906 C 17.050781 -23.003906 20.230469 -21.558594 21.90625 -19.765625 L 24.792969 -24.792969 C 22.078125 -26.992188 18.320312 -28.609375 13.582031 -28.609375 C 6.242188 -28.609375 2.136719 -24.503906 2.136719 -19.824219 C 2.136719 -13.175781 8.324219 -12.023438 13.121094 -11.097656 C 16.296875 -10.460938 18.726562 -9.765625 18.726562 -7.800781 C 18.726562 -6.070312 17.222656 -4.96875 14.042969 -4.96875 C 10.578125 -4.96875 6.414062 -6.878906 4.390625 -8.785156 Z M 1.214844 -3.640625 "/></g></g></g><g fill="#000000" fill-opacity="1"><g transform="translate(818.504425, 918.040231)"><g><path d="M 1.847656 -13.988281 C 1.847656 -5.027344 8.265625 0.695312 16.761719 0.695312 C 21.09375 0.695312 25.429688 -0.578125 28.261719 -3.179688 L 25.027344 -7.917969 C 23.234375 -6.183594 20.171875 -5.144531 17.570312 -5.144531 C 12.832031 -5.144531 10 -8.089844 9.535156 -11.617188 L 30.285156 -11.617188 L 30.285156 -13.234375 C 30.285156 -22.367188 24.621094 -28.609375 16.296875 -28.609375 C 7.800781 -28.609375 1.847656 -22.078125 1.847656 -13.988281 Z M 16.296875 -22.773438 C 21.152344 -22.773438 23.003906 -19.246094 23.175781 -16.585938 L 9.421875 -16.585938 C 9.765625 -19.363281 11.734375 -22.773438 16.296875 -22.773438 Z M 16.296875 -22.773438 "/></g></g></g><g fill="#000000" fill-opacity="1"><g transform="translate(850.465393, 918.040231)"><g><path d="M 2.714844 -23.636719 C 2.714844 -21.09375 4.855469 -18.957031 7.398438 -18.957031 C 9.941406 -18.957031 12.078125 -21.09375 12.078125 -23.636719 C 12.078125 -26.179688 9.941406 -28.320312 7.398438 -28.320312 C 4.855469 -28.320312 2.714844 -26.179688 2.714844 -23.636719 Z M 2.714844 -4.046875 C 2.714844 -1.503906 4.855469 0.636719 7.398438 0.636719 C 9.941406 0.636719 12.078125 -1.503906 12.078125 -4.046875 C 12.078125 -6.589844 9.941406 -8.726562 7.398438 -8.726562 C 4.855469 -8.726562 2.714844 -6.589844 2.714844 -4.046875 Z M 2.714844 -4.046875 "/></g></g></g><g fill="#000000" fill-opacity="1"><g transform="translate(864.973862, 918.040231)"><g/></g></g><g fill="#000000" fill-opacity="1"><g transform="translate(131.830392, 998.239692)"><g><path d="M 12.023438 0 L 12.023438 -13.8125 L 21.847656 -13.8125 C 30.167969 -13.8125 34.792969 -19.417969 34.792969 -26.125 C 34.792969 -32.886719 30.226562 -38.550781 21.847656 -38.550781 L 3.816406 -38.550781 L 3.816406 0 Z M 26.414062 -26.179688 C 26.414062 -22.945312 23.984375 -20.863281 20.75 -20.863281 L 12.023438 -20.863281 L 12.023438 -31.5 L 20.75 -31.5 C 23.984375 -31.5 26.414062 -29.359375 26.414062 -26.179688 Z M 26.414062 -26.179688 "/></g></g></g><g fill="#000000" fill-opacity="1"><g transform="translate(167.894835, 998.239692)"><g><path d="M 27.742188 0 L 27.742188 -18.03125 C 27.742188 -26.066406 21.90625 -28.609375 15.546875 -28.609375 C 11.15625 -28.609375 6.761719 -27.222656 3.351562 -24.214844 L 6.125 -19.304688 C 8.496094 -21.5 11.269531 -22.597656 14.277344 -22.597656 C 17.972656 -22.597656 20.402344 -20.75 20.402344 -17.917969 L 20.402344 -14.042969 C 18.550781 -16.296875 15.257812 -17.453125 11.558594 -17.453125 C 7.109375 -17.453125 1.847656 -15.085938 1.847656 -8.554688 C 1.847656 -2.3125 7.109375 0.695312 11.558594 0.695312 C 15.199219 0.695312 18.496094 -0.636719 20.402344 -2.890625 L 20.402344 0 Z M 20.402344 -6.703125 C 19.1875 -5.085938 16.875 -4.277344 14.507812 -4.277344 C 11.617188 -4.277344 9.246094 -5.78125 9.246094 -8.378906 C 9.246094 -11.039062 11.617188 -12.597656 14.507812 -12.597656 C 16.875 -12.597656 19.1875 -11.789062 20.402344 -10.171875 Z M 20.402344 -6.703125 "/></g></g></g><g fill="#000000" fill-opacity="1"><g transform="translate(199.277841, 998.239692)"><g><path d="M 29.824219 0 L 29.824219 -27.914062 L 22.484375 -27.914062 L 22.484375 -9.015625 C 21.210938 -7.398438 18.957031 -5.835938 16.125 -5.835938 C 13.003906 -5.835938 10.980469 -7.109375 10.980469 -10.980469 L 10.980469 -27.914062 L 3.640625 -27.914062 L 3.640625 -8.089844 C 3.640625 -2.660156 6.53125 0.695312 12.65625 0.695312 C 17.222656 0.695312 20.574219 -1.386719 22.484375 -3.527344 L 22.484375 0 Z M 29.824219 0 "/></g></g></g><g fill="#000000" fill-opacity="1"><g transform="translate(232.74148, 998.239692)"><g><path d="M 1.214844 -3.640625 C 4.160156 -0.925781 8.84375 0.695312 13.699219 0.695312 C 21.441406 0.695312 25.777344 -3.121094 25.777344 -8.265625 C 25.777344 -15.199219 19.363281 -16.472656 14.566406 -17.398438 C 11.445312 -18.03125 9.246094 -18.667969 9.246094 -20.402344 C 9.246094 -22.019531 10.980469 -23.003906 13.640625 -23.003906 C 17.050781 -23.003906 20.230469 -21.558594 21.90625 -19.765625 L 24.792969 -24.792969 C 22.078125 -26.992188 18.320312 -28.609375 13.582031 -28.609375 C 6.242188 -28.609375 2.136719 -24.503906 2.136719 -19.824219 C 2.136719 -13.175781 8.324219 -12.023438 13.121094 -11.097656 C 16.296875 -10.460938 18.726562 -9.765625 18.726562 -7.800781 C 18.726562 -6.070312 17.222656 -4.96875 14.042969 -4.96875 C 10.578125 -4.96875 6.414062 -6.878906 4.390625 -8.785156 Z M 1.214844 -3.640625 "/></g></g></g><g fill="#000000" fill-opacity="1"><g transform="translate(260.309975, 998.239692)"><g><path d="M 1.847656 -13.988281 C 1.847656 -5.027344 8.265625 0.695312 16.761719 0.695312 C 21.09375 0.695312 25.429688 -0.578125 28.261719 -3.179688 L 25.027344 -7.917969 C 23.234375 -6.183594 20.171875 -5.144531 17.570312 -5.144531 C 12.832031 -5.144531 10 -8.089844 9.535156 -11.617188 L 30.285156 -11.617188 L 30.285156 -13.234375 C 30.285156 -22.367188 24.621094 -28.609375 16.296875 -28.609375 C 7.800781 -28.609375 1.847656 -22.078125 1.847656 -13.988281 Z M 16.296875 -22.773438 C 21.152344 -22.773438 23.003906 -19.246094 23.175781 -16.585938 L 9.421875 -16.585938 C 9.765625 -19.363281 11.734375 -22.773438 16.296875 -22.773438 Z M 16.296875 -22.773438 "/></g></g></g><g fill="#000000" fill-opacity="1"><g transform="translate(292.270933, 998.239692)"><g/></g></g><g fill="#000000" fill-opacity="1"><g transform="translate(307.066602, 998.239692)"><g><path d="M 18.320312 -21.5 L 18.320312 -27.914062 L 12.65625 -27.914062 L 12.65625 -29.300781 C 12.65625 -31.960938 14.042969 -33.347656 16.125 -33.347656 C 16.992188 -33.347656 17.859375 -33.175781 18.496094 -32.769531 L 19.996094 -37.972656 C 18.667969 -38.664062 16.761719 -39.128906 14.679688 -39.128906 C 9.191406 -39.128906 5.257812 -35.488281 5.257812 -29.417969 L 5.257812 -27.914062 L 0.636719 -27.914062 L 0.636719 -21.5 L 5.257812 -21.5 L 5.257812 0 L 12.65625 0 L 12.65625 -21.5 Z M 18.320312 -21.5 "/></g></g></g><g fill="#000000" fill-opacity="1"><g transform="translate(325.965745, 998.239692)"><g><path d="M 16.585938 0.695312 C 25.835938 0.695312 31.382812 -6.011719 31.382812 -13.988281 C 31.382812 -21.90625 25.835938 -28.609375 16.585938 -28.609375 C 7.398438 -28.609375 1.847656 -21.90625 1.847656 -13.988281 C 1.847656 -6.011719 7.398438 0.695312 16.585938 0.695312 Z M 16.585938 -5.835938 C 12.023438 -5.835938 9.480469 -9.59375 9.480469 -13.988281 C 9.480469 -18.320312 12.023438 -22.078125 16.585938 -22.078125 C 21.152344 -22.078125 23.753906 -18.320312 23.753906 -13.988281 C 23.753906 -9.59375 21.152344 -5.835938 16.585938 -5.835938 Z M 16.585938 -5.835938 "/></g></g></g><g fill="#000000" fill-opacity="1"><g transform="translate(359.140396, 998.239692)"><g><path d="M 10.980469 0 L 10.980469 -18.4375 C 12.195312 -20.230469 15.429688 -21.558594 17.859375 -21.558594 C 18.667969 -21.558594 19.363281 -21.5 19.882812 -21.382812 L 19.882812 -28.550781 C 16.414062 -28.550781 12.945312 -26.585938 10.980469 -24.101562 L 10.980469 -27.914062 L 3.640625 -27.914062 L 3.640625 0 Z M 10.980469 0 "/></g></g></g><g fill="#000000" fill-opacity="1"><g transform="translate(379.946811, 998.239692)"><g/></g></g><g fill="#000000" fill-opacity="1"><g transform="translate(394.74248, 998.239692)"><g><path d="M 27.742188 0 L 27.742188 -18.03125 C 27.742188 -26.066406 21.90625 -28.609375 15.546875 -28.609375 C 11.15625 -28.609375 6.761719 -27.222656 3.351562 -24.214844 L 6.125 -19.304688 C 8.496094 -21.5 11.269531 -22.597656 14.277344 -22.597656 C 17.972656 -22.597656 20.402344 -20.75 20.402344 -17.917969 L 20.402344 -14.042969 C 18.550781 -16.296875 15.257812 -17.453125 11.558594 -17.453125 C 7.109375 -17.453125 1.847656 -15.085938 1.847656 -8.554688 C 1.847656 -2.3125 7.109375 0.695312 11.558594 0.695312 C 15.199219 0.695312 18.496094 -0.636719 20.402344 -2.890625 L 20.402344 0 Z M 20.402344 -6.703125 C 19.1875 -5.085938 16.875 -4.277344 14.507812 -4.277344 C 11.617188 -4.277344 9.246094 -5.78125 9.246094 -8.378906 C 9.246094 -11.039062 11.617188 -12.597656 14.507812 -12.597656 C 16.875 -12.597656 19.1875 -11.789062 20.402344 -10.171875 Z M 20.402344 -6.703125 "/></g></g></g><g fill="#000000" fill-opacity="1"><g transform="translate(426.125498, 998.239692)"><g/></g></g><g fill="#000000" fill-opacity="1"><g transform="translate(440.921167, 998.239692)"><g><path d="M 45.660156 0 L 45.660156 -20.171875 C 45.660156 -25.894531 42.597656 -28.609375 37.453125 -28.609375 C 33.175781 -28.609375 29.476562 -26.066406 27.859375 -23.523438 C 26.816406 -26.703125 24.214844 -28.609375 20.113281 -28.609375 C 15.835938 -28.609375 12.136719 -25.949219 10.980469 -24.273438 L 10.980469 -27.914062 L 3.640625 -27.914062 L 3.640625 0 L 10.980469 0 L 10.980469 -18.785156 C 12.078125 -20.34375 14.21875 -22.078125 16.761719 -22.078125 C 19.765625 -22.078125 20.921875 -20.230469 20.921875 -17.628906 L 20.921875 0 L 28.320312 0 L 28.320312 -18.839844 C 29.359375 -20.34375 31.5 -22.078125 34.101562 -22.078125 C 37.105469 -22.078125 38.261719 -20.230469 38.261719 -17.628906 L 38.261719 0 Z M 45.660156 0 "/></g></g></g><g fill="#000000" fill-opacity="1"><g transform="translate(490.162994, 998.239692)"><g><path d="M 16.585938 0.695312 C 25.835938 0.695312 31.382812 -6.011719 31.382812 -13.988281 C 31.382812 -21.90625 25.835938 -28.609375 16.585938 -28.609375 C 7.398438 -28.609375 1.847656 -21.90625 1.847656 -13.988281 C 1.847656 -6.011719 7.398438 0.695312 16.585938 0.695312 Z M 16.585938 -5.835938 C 12.023438 -5.835938 9.480469 -9.59375 9.480469 -13.988281 C 9.480469 -18.320312 12.023438 -22.078125 16.585938 -22.078125 C 21.152344 -22.078125 23.753906 -18.320312 23.753906 -13.988281 C 23.753906 -9.59375 21.152344 -5.835938 16.585938 -5.835938 Z M 16.585938 -5.835938 "/></g></g></g><g fill="#000000" fill-opacity="1"><g transform="translate(523.337646, 998.239692)"><g><path d="M 45.660156 0 L 45.660156 -20.171875 C 45.660156 -25.894531 42.597656 -28.609375 37.453125 -28.609375 C 33.175781 -28.609375 29.476562 -26.066406 27.859375 -23.523438 C 26.816406 -26.703125 24.214844 -28.609375 20.113281 -28.609375 C 15.835938 -28.609375 12.136719 -25.949219 10.980469 -24.273438 L 10.980469 -27.914062 L 3.640625 -27.914062 L 3.640625 0 L 10.980469 0 L 10.980469 -18.785156 C 12.078125 -20.34375 14.21875 -22.078125 16.761719 -22.078125 C 19.765625 -22.078125 20.921875 -20.230469 20.921875 -17.628906 L 20.921875 0 L 28.320312 0 L 28.320312 -18.839844 C 29.359375 -20.34375 31.5 -22.078125 34.101562 -22.078125 C 37.105469 -22.078125 38.261719 -20.230469 38.261719 -17.628906 L 38.261719 0 Z M 45.660156 0 "/></g></g></g><g fill="#000000" fill-opacity="1"><g transform="translate(572.579473, 998.239692)"><g><path d="M 1.847656 -13.988281 C 1.847656 -5.027344 8.265625 0.695312 16.761719 0.695312 C 21.09375 0.695312 25.429688 -0.578125 28.261719 -3.179688 L 25.027344 -7.917969 C 23.234375 -6.183594 20.171875 -5.144531 17.570312 -5.144531 C 12.832031 -5.144531 10 -8.089844 9.535156 -11.617188 L 30.285156 -11.617188 L 30.285156 -13.234375 C 30.285156 -22.367188 24.621094 -28.609375 16.296875 -28.609375 C 7.800781 -28.609375 1.847656 -22.078125 1.847656 -13.988281 Z M 16.296875 -22.773438 C 21.152344 -22.773438 23.003906 -19.246094 23.175781 -16.585938 L 9.421875 -16.585938 C 9.765625 -19.363281 11.734375 -22.773438 16.296875 -22.773438 Z M 16.296875 -22.773438 "/></g></g></g><g fill="#000000" fill-opacity="1"><g transform="translate(604.540442, 998.239692)"><g><path d="M 29.824219 0 L 29.824219 -19.707031 C 29.824219 -25.140625 26.875 -28.609375 20.75 -28.609375 C 16.183594 -28.609375 12.773438 -26.414062 10.980469 -24.273438 L 10.980469 -27.914062 L 3.640625 -27.914062 L 3.640625 0 L 10.980469 0 L 10.980469 -18.785156 C 12.195312 -20.460938 14.449219 -22.078125 17.339844 -22.078125 C 20.460938 -22.078125 22.484375 -20.75 22.484375 -16.875 L 22.484375 0 Z M 29.824219 0 "/></g></g></g><g fill="#000000" fill-opacity="1"><g transform="translate(638.00408, 998.239692)"><g><path d="M 13.003906 0.695312 C 16.066406 0.695312 18.03125 -0.117188 19.128906 -1.097656 L 17.570312 -6.648438 C 17.164062 -6.242188 16.125 -5.835938 15.027344 -5.835938 C 13.410156 -5.835938 12.484375 -7.167969 12.484375 -8.902344 L 12.484375 -21.5 L 18.148438 -21.5 L 18.148438 -27.914062 L 12.484375 -27.914062 L 12.484375 -35.542969 L 5.085938 -35.542969 L 5.085938 -27.914062 L 0.460938 -27.914062 L 0.460938 -21.5 L 5.085938 -21.5 L 5.085938 -6.933594 C 5.085938 -1.964844 7.859375 0.695312 13.003906 0.695312 Z M 13.003906 0.695312 "/></g></g></g><g fill="#000000" fill-opacity="1"><g transform="translate(657.538965, 998.239692)"><g/></g></g><g fill="#000000" fill-opacity="1"><g transform="translate(672.334634, 998.239692)"><g><path d="M 16.585938 0.695312 C 25.835938 0.695312 31.382812 -6.011719 31.382812 -13.988281 C 31.382812 -21.90625 25.835938 -28.609375 16.585938 -28.609375 C 7.398438 -28.609375 1.847656 -21.90625 1.847656 -13.988281 C 1.847656 -6.011719 7.398438 0.695312 16.585938 0.695312 Z M 16.585938 -5.835938 C 12.023438 -5.835938 9.480469 -9.59375 9.480469 -13.988281 C 9.480469 -18.320312 12.023438 -22.078125 16.585938 -22.078125 C 21.152344 -22.078125 23.753906 -18.320312 23.753906 -13.988281 C 23.753906 -9.59375 21.152344 -5.835938 16.585938 -5.835938 Z M 16.585938 -5.835938 "/></g></g></g><g fill="#000000" fill-opacity="1"><g transform="translate(705.509285, 998.239692)"><g><path d="M 18.320312 -21.5 L 18.320312 -27.914062 L 12.65625 -27.914062 L 12.65625 -29.300781 C 12.65625 -31.960938 14.042969 -33.347656 16.125 -33.347656 C 16.992188 -33.347656 17.859375 -33.175781 18.496094 -32.769531 L 19.996094 -37.972656 C 18.667969 -38.664062 16.761719 -39.128906 14.679688 -39.128906 C 9.191406 -39.128906 5.257812 -35.488281 5.257812 -29.417969 L 5.257812 -27.914062 L 0.636719 -27.914062 L 0.636719 -21.5 L 5.257812 -21.5 L 5.257812 0 L 12.65625 0 L 12.65625 -21.5 Z M 18.320312 -21.5 "/></g></g></g><g fill="#000000" fill-opacity="1"><g transform="translate(724.408417, 998.239692)"><g/></g></g><g fill="#000000" fill-opacity="1"><g transform="translate(739.204086, 998.239692)"><g><path d="M 45.660156 0 L 45.660156 -20.171875 C 45.660156 -25.894531 42.597656 -28.609375 37.453125 -28.609375 C 33.175781 -28.609375 29.476562 -26.066406 27.859375 -23.523438 C 26.816406 -26.703125 24.214844 -28.609375 20.113281 -28.609375 C 15.835938 -28.609375 12.136719 -25.949219 10.980469 -24.273438 L 10.980469 -27.914062 L 3.640625 -27.914062 L 3.640625 0 L 10.980469 0 L 10.980469 -18.785156 C 12.078125 -20.34375 14.21875 -22.078125 16.761719 -22.078125 C 19.765625 -22.078125 20.921875 -20.230469 20.921875 -17.628906 L 20.921875 0 L 28.320312 0 L 28.320312 -18.839844 C 29.359375 -20.34375 31.5 -22.078125 34.101562 -22.078125 C 37.105469 -22.078125 38.261719 -20.230469 38.261719 -17.628906 L 38.261719 0 Z M 45.660156 0 "/></g></g></g><g fill="#000000" fill-opacity="1"><g transform="translate(788.445914, 998.239692)"><g><path d="M 7.28125 -32.019531 C 9.710938 -32.019531 11.675781 -33.984375 11.675781 -36.410156 C 11.675781 -38.839844 9.710938 -40.804688 7.28125 -40.804688 C 4.914062 -40.804688 2.890625 -38.839844 2.890625 -36.410156 C 2.890625 -33.984375 4.914062 -32.019531 7.28125 -32.019531 Z M 10.980469 0 L 10.980469 -27.914062 L 3.640625 -27.914062 L 3.640625 0 Z M 10.980469 0 "/></g></g></g><g fill="#000000" fill-opacity="1"><g transform="translate(803.0682, 998.239692)"><g><path d="M 29.824219 0 L 29.824219 -19.707031 C 29.824219 -25.140625 26.875 -28.609375 20.75 -28.609375 C 16.183594 -28.609375 12.773438 -26.414062 10.980469 -24.273438 L 10.980469 -27.914062 L 3.640625 -27.914062 L 3.640625 0 L 10.980469 0 L 10.980469 -18.785156 C 12.195312 -20.460938 14.449219 -22.078125 17.339844 -22.078125 C 20.460938 -22.078125 22.484375 -20.75 22.484375 -16.875 L 22.484375 0 Z M 29.824219 0 "/></g></g></g><g fill="#000000" fill-opacity="1"><g transform="translate(836.531838, 998.239692)"><g><path d="M 30.226562 0 L 30.226562 -38.550781 L 22.828125 -38.550781 L 22.828125 -24.332031 C 20.632812 -27.164062 17.511719 -28.609375 14.21875 -28.609375 C 7.109375 -28.609375 1.847656 -23.0625 1.847656 -13.929688 C 1.847656 -4.625 7.167969 0.695312 14.21875 0.695312 C 17.570312 0.695312 20.632812 -0.808594 22.828125 -3.527344 L 22.828125 0 Z M 22.828125 -9.015625 C 21.558594 -7.167969 18.957031 -5.835938 16.472656 -5.835938 C 12.3125 -5.835938 9.421875 -9.132812 9.421875 -13.929688 C 9.421875 -18.785156 12.3125 -22.078125 16.472656 -22.078125 C 18.957031 -22.078125 21.558594 -20.75 22.828125 -18.898438 Z M 22.828125 -9.015625 "/></g></g></g><g fill="#000000" fill-opacity="1"><g transform="translate(870.400068, 998.239692)"><g><path d="M 18.320312 -21.5 L 18.320312 -27.914062 L 12.65625 -27.914062 L 12.65625 -29.300781 C 12.65625 -31.960938 14.042969 -33.347656 16.125 -33.347656 C 16.992188 -33.347656 17.859375 -33.175781 18.496094 -32.769531 L 19.996094 -37.972656 C 18.667969 -38.664062 16.761719 -39.128906 14.679688 -39.128906 C 9.191406 -39.128906 5.257812 -35.488281 5.257812 -29.417969 L 5.257812 -27.914062 L 0.636719 -27.914062 L 0.636719 -21.5 L 5.257812 -21.5 L 5.257812 0 L 12.65625 0 L 12.65625 -21.5 Z M 18.320312 -21.5 "/></g></g></g><g fill="#000000" fill-opacity="1"><g transform="translate(889.299199, 998.239692)"><g><path d="M 29.824219 0 L 29.824219 -27.914062 L 22.484375 -27.914062 L 22.484375 -9.015625 C 21.210938 -7.398438 18.957031 -5.835938 16.125 -5.835938 C 13.003906 -5.835938 10.980469 -7.109375 10.980469 -10.980469 L 10.980469 -27.914062 L 3.640625 -27.914062 L 3.640625 -8.089844 C 3.640625 -2.660156 6.53125 0.695312 12.65625 0.695312 C 17.222656 0.695312 20.574219 -1.386719 22.484375 -3.527344 L 22.484375 0 Z M 29.824219 0 "/></g></g></g><g fill="#000000" fill-opacity="1"><g transform="translate(922.762883, 998.239692)"><g><path d="M 10.980469 0 L 10.980469 -38.550781 L 3.640625 -38.550781 L 3.640625 0 Z M 10.980469 0 "/></g></g></g><g fill="#000000" fill-opacity="1"><g transform="translate(937.385169, 998.239692)"><g><path d="M 29.824219 0 L 29.824219 -19.707031 C 29.824219 -25.140625 26.875 -28.609375 20.75 -28.609375 C 16.183594 -28.609375 12.773438 -26.414062 10.980469 -24.273438 L 10.980469 -27.914062 L 3.640625 -27.914062 L 3.640625 0 L 10.980469 0 L 10.980469 -18.785156 C 12.195312 -20.460938 14.449219 -22.078125 17.339844 -22.078125 C 20.460938 -22.078125 22.484375 -20.75 22.484375 -16.875 L 22.484375 0 Z M 29.824219 0 "/></g></g></g><g fill="#000000" fill-opacity="1"><g transform="translate(970.848853, 998.239692)"><g><path d="M 1.847656 -13.988281 C 1.847656 -5.027344 8.265625 0.695312 16.761719 0.695312 C 21.09375 0.695312 25.429688 -0.578125 28.261719 -3.179688 L 25.027344 -7.917969 C 23.234375 -6.183594 20.171875 -5.144531 17.570312 -5.144531 C 12.832031 -5.144531 10 -8.089844 9.535156 -11.617188 L 30.285156 -11.617188 L 30.285156 -13.234375 C 30.285156 -22.367188 24.621094 -28.609375 16.296875 -28.609375 C 7.800781 -28.609375 1.847656 -22.078125 1.847656 -13.988281 Z M 16.296875 -22.773438 C 21.152344 -22.773438 23.003906 -19.246094 23.175781 -16.585938 L 9.421875 -16.585938 C 9.765625 -19.363281 11.734375 -22.773438 16.296875 -22.773438 Z M 16.296875 -22.773438 "/></g></g></g><g fill="#000000" fill-opacity="1"><g transform="translate(1002.809822, 998.239692)"><g><path d="M 1.214844 -3.640625 C 4.160156 -0.925781 8.84375 0.695312 13.699219 0.695312 C 21.441406 0.695312 25.777344 -3.121094 25.777344 -8.265625 C 25.777344 -15.199219 19.363281 -16.472656 14.566406 -17.398438 C 11.445312 -18.03125 9.246094 -18.667969 9.246094 -20.402344 C 9.246094 -22.019531 10.980469 -23.003906 13.640625 -23.003906 C 17.050781 -23.003906 20.230469 -21.558594 21.90625 -19.765625 L 24.792969 -24.792969 C 22.078125 -26.992188 18.320312 -28.609375 13.582031 -28.609375 C 6.242188 -28.609375 2.136719 -24.503906 2.136719 -19.824219 C 2.136719 -13.175781 8.324219 -12.023438 13.121094 -11.097656 C 16.296875 -10.460938 18.726562 -9.765625 18.726562 -7.800781 C 18.726562 -6.070312 17.222656 -4.96875 14.042969 -4.96875 C 10.578125 -4.96875 6.414062 -6.878906 4.390625 -8.785156 Z M 1.214844 -3.640625 "/></g></g></g><g fill="#000000" fill-opacity="1"><g transform="translate(1030.378295, 998.239692)"><g><path d="M 1.214844 -3.640625 C 4.160156 -0.925781 8.84375 0.695312 13.699219 0.695312 C 21.441406 0.695312 25.777344 -3.121094 25.777344 -8.265625 C 25.777344 -15.199219 19.363281 -16.472656 14.566406 -17.398438 C 11.445312 -18.03125 9.246094 -18.667969 9.246094 -20.402344 C 9.246094 -22.019531 10.980469 -23.003906 13.640625 -23.003906 C 17.050781 -23.003906 20.230469 -21.558594 21.90625 -19.765625 L 24.792969 -24.792969 C 22.078125 -26.992188 18.320312 -28.609375 13.582031 -28.609375 C 6.242188 -28.609375 2.136719 -24.503906 2.136719 -19.824219 C 2.136719 -13.175781 8.324219 -12.023438 13.121094 -11.097656 C 16.296875 -10.460938 18.726562 -9.765625 18.726562 -7.800781 C 18.726562 -6.070312 17.222656 -4.96875 14.042969 -4.96875 C 10.578125 -4.96875 6.414062 -6.878906 4.390625 -8.785156 Z M 1.214844 -3.640625 "/></g></g></g></svg>