<svg xmlns="http://www.w3.org/2000/svg" xmlns:xlink="http://www.w3.org/1999/xlink" width="1587" zoomAndPan="magnify" viewBox="0 0 1190.25 1683.749949" height="2245" preserveAspectRatio="xMidYMid meet" version="1.0"><defs><g/><clipPath id="3af71cb85c"><path d="M 0 0.40625 L 1189.5 0.40625 L 1189.5 1683.09375 L 0 1683.09375 Z M 0 0.40625 " clip-rule="nonzero"/></clipPath></defs><g clip-path="url(#3af71cb85c)"><path fill="#ffffff" d="M 0 0.40625 L 1189.5 0.40625 L 1189.5 1683.09375 L 0 1683.09375 Z M 0 0.40625 " fill-opacity="1" fill-rule="nonzero"/><path fill="#ebe8e6" d="M 0 0.40625 L 1189.5 0.40625 L 1189.5 1683.09375 L 0 1683.09375 Z M 0 0.40625 " fill-opacity="1" fill-rule="nonzero"/></g><g fill="#000000" fill-opacity="1"><g transform="translate(184.027968, 893.697899)"><g><path d="M 22.195312 0.695312 C 30.980469 0.695312 35.832031 -3.988281 38.609375 -8.785156 L 31.558594 -12.195312 C 29.9375 -9.015625 26.46875 -6.589844 22.195312 -6.589844 C 15.488281 -6.589844 10.402344 -11.964844 10.402344 -19.246094 C 10.402344 -26.527344 15.488281 -31.902344 22.195312 -31.902344 C 26.46875 -31.902344 29.9375 -29.417969 31.558594 -26.296875 L 38.609375 -29.765625 C 35.890625 -34.5625 30.980469 -39.1875 22.195312 -39.1875 C 10.921875 -39.1875 1.964844 -31.09375 1.964844 -19.246094 C 1.964844 -7.398438 10.921875 0.695312 22.195312 0.695312 Z M 22.195312 0.695312 "/></g></g></g><g fill="#000000" fill-opacity="1"><g transform="translate(223.733538, 893.697899)"><g><path d="M 16.585938 0.695312 C 25.835938 0.695312 31.382812 -6.011719 31.382812 -13.988281 C 31.382812 -21.90625 25.835938 -28.609375 16.585938 -28.609375 C 7.398438 -28.609375 1.847656 -21.90625 1.847656 -13.988281 C 1.847656 -6.011719 7.398438 0.695312 16.585938 0.695312 Z M 16.585938 -5.835938 C 12.023438 -5.835938 9.480469 -9.59375 9.480469 -13.988281 C 9.480469 -18.320312 12.023438 -22.078125 16.585938 -22.078125 C 21.152344 -22.078125 23.753906 -18.320312 23.753906 -13.988281 C 23.753906 -9.59375 21.152344 -5.835938 16.585938 -5.835938 Z M 16.585938 -5.835938 "/></g></g></g><g fill="#000000" fill-opacity="1"><g transform="translate(256.9082, 893.697899)"><g><path d="M 29.824219 0 L 29.824219 -27.914062 L 22.484375 -27.914062 L 22.484375 -9.015625 C 21.210938 -7.398438 18.957031 -5.835938 16.125 -5.835938 C 13.003906 -5.835938 10.980469 -7.109375 10.980469 -10.980469 L 10.980469 -27.914062 L 3.640625 -27.914062 L 3.640625 -8.089844 C 3.640625 -2.660156 6.53125 0.695312 12.65625 0.695312 C 17.222656 0.695312 20.574219 -1.386719 22.484375 -3.527344 L 22.484375 0 Z M 29.824219 0 "/></g></g></g><g fill="#000000" fill-opacity="1"><g transform="translate(290.371838, 893.697899)"><g><path d="M 29.824219 0 L 29.824219 -19.707031 C 29.824219 -25.140625 26.875 -28.609375 20.75 -28.609375 C 16.183594 -28.609375 12.773438 -26.414062 10.980469 -24.273438 L 10.980469 -27.914062 L 3.640625 -27.914062 L 3.640625 0 L 10.980469 0 L 10.980469 -18.785156 C 12.195312 -20.460938 14.449219 -22.078125 17.339844 -22.078125 C 20.460938 -22.078125 22.484375 -20.75 22.484375 -16.875 L 22.484375 0 Z M 29.824219 0 "/></g></g></g><g fill="#000000" fill-opacity="1"><g transform="translate(323.835476, 893.697899)"><g><path d="M 13.003906 0.695312 C 16.066406 0.695312 18.03125 -0.117188 19.128906 -1.097656 L 17.570312 -6.648438 C 17.164062 -6.242188 16.125 -5.835938 15.027344 -5.835938 C 13.410156 -5.835938 12.484375 -7.167969 12.484375 -8.902344 L 12.484375 -21.5 L 18.148438 -21.5 L 18.148438 -27.914062 L 12.484375 -27.914062 L 12.484375 -35.542969 L 5.085938 -35.542969 L 5.085938 -27.914062 L 0.460938 -27.914062 L 0.460938 -21.5 L 5.085938 -21.5 L 5.085938 -6.933594 C 5.085938 -1.964844 7.859375 0.695312 13.003906 0.695312 Z M 13.003906 0.695312 "/></g></g></g><g fill="#000000" fill-opacity="1"><g transform="translate(343.370385, 893.697899)"><g><path d="M 7.28125 -32.019531 C 9.710938 -32.019531 11.675781 -33.984375 11.675781 -36.410156 C 11.675781 -38.839844 9.710938 -40.804688 7.28125 -40.804688 C 4.914062 -40.804688 2.890625 -38.839844 2.890625 -36.410156 C 2.890625 -33.984375 4.914062 -32.019531 7.28125 -32.019531 Z M 10.980469 0 L 10.980469 -27.914062 L 3.640625 -27.914062 L 3.640625 0 Z M 10.980469 0 "/></g></g></g><g fill="#000000" fill-opacity="1"><g transform="translate(357.992671, 893.697899)"><g><path d="M 29.824219 0 L 29.824219 -19.707031 C 29.824219 -25.140625 26.875 -28.609375 20.75 -28.609375 C 16.183594 -28.609375 12.773438 -26.414062 10.980469 -24.273438 L 10.980469 -27.914062 L 3.640625 -27.914062 L 3.640625 0 L 10.980469 0 L 10.980469 -18.785156 C 12.195312 -20.460938 14.449219 -22.078125 17.339844 -22.078125 C 20.460938 -22.078125 22.484375 -20.75 22.484375 -16.875 L 22.484375 0 Z M 29.824219 0 "/></g></g></g><g fill="#000000" fill-opacity="1"><g transform="translate(391.456321, 893.697899)"><g><path d="M 3.0625 7.167969 C 6.53125 10.230469 10.289062 11.328125 15.085938 11.328125 C 21.960938 11.328125 30.167969 8.726562 30.167969 -1.90625 L 30.167969 -27.914062 L 22.773438 -27.914062 L 22.773438 -24.332031 C 20.519531 -27.164062 17.511719 -28.609375 14.160156 -28.609375 C 7.109375 -28.609375 1.847656 -23.523438 1.847656 -14.390625 C 1.847656 -5.085938 7.167969 -0.171875 14.160156 -0.171875 C 17.570312 -0.171875 20.574219 -1.792969 22.773438 -4.566406 L 22.773438 -1.734375 C 22.773438 3.757812 18.609375 5.316406 15.085938 5.316406 C 11.558594 5.316406 8.613281 4.335938 6.359375 1.847656 Z M 22.773438 -9.882812 C 21.558594 -8.089844 18.898438 -6.703125 16.472656 -6.703125 C 12.3125 -6.703125 9.421875 -9.59375 9.421875 -14.390625 C 9.421875 -19.1875 12.3125 -22.078125 16.472656 -22.078125 C 18.898438 -22.078125 21.558594 -20.75 22.773438 -18.898438 Z M 22.773438 -9.882812 "/></g></g></g><g fill="#000000" fill-opacity="1"><g transform="translate(425.266726, 893.697899)"><g/></g></g><g fill="#000000" fill-opacity="1"><g transform="translate(440.062395, 893.697899)"><g><path d="M 24.738281 0 C 32.078125 0 35.949219 -4.625 35.949219 -10.402344 C 35.949219 -15.257812 32.65625 -19.246094 28.550781 -19.882812 C 32.191406 -20.632812 35.199219 -23.871094 35.199219 -28.726562 C 35.199219 -33.867188 31.441406 -38.550781 24.101562 -38.550781 L 3.816406 -38.550781 L 3.816406 0 Z M 12.023438 -31.558594 L 22.308594 -31.558594 C 25.082031 -31.558594 26.816406 -29.707031 26.816406 -27.335938 C 26.816406 -24.851562 25.082031 -23.0625 22.308594 -23.0625 L 12.023438 -23.0625 Z M 12.023438 -16.066406 L 22.597656 -16.066406 C 25.835938 -16.066406 27.570312 -13.988281 27.570312 -11.558594 C 27.570312 -8.785156 25.71875 -6.992188 22.597656 -6.992188 L 12.023438 -6.992188 Z M 12.023438 -16.066406 "/></g></g></g><g fill="#000000" fill-opacity="1"><g transform="translate(478.380853, 893.697899)"><g><path d="M 27.742188 0 L 27.742188 -18.03125 C 27.742188 -26.066406 21.90625 -28.609375 15.546875 -28.609375 C 11.15625 -28.609375 6.761719 -27.222656 3.351562 -24.214844 L 6.125 -19.304688 C 8.496094 -21.5 11.269531 -22.597656 14.277344 -22.597656 C 17.972656 -22.597656 20.402344 -20.75 20.402344 -17.917969 L 20.402344 -14.042969 C 18.550781 -16.296875 15.257812 -17.453125 11.558594 -17.453125 C 7.109375 -17.453125 1.847656 -15.085938 1.847656 -8.554688 C 1.847656 -2.3125 7.109375 0.695312 11.558594 0.695312 C 15.199219 0.695312 18.496094 -0.636719 20.402344 -2.890625 L 20.402344 0 Z M 20.402344 -6.703125 C 19.1875 -5.085938 16.875 -4.277344 14.507812 -4.277344 C 11.617188 -4.277344 9.246094 -5.78125 9.246094 -8.378906 C 9.246094 -11.039062 11.617188 -12.597656 14.507812 -12.597656 C 16.875 -12.597656 19.1875 -11.789062 20.402344 -10.171875 Z M 20.402344 -6.703125 "/></g></g></g><g fill="#000000" fill-opacity="1"><g transform="translate(509.763848, 893.697899)"><g><path d="M 1.847656 -13.988281 C 1.847656 -5.375 8.035156 0.695312 16.644531 0.695312 C 22.367188 0.695312 25.835938 -1.792969 27.683594 -4.390625 L 22.886719 -8.84375 C 21.558594 -6.992188 19.535156 -5.835938 16.992188 -5.835938 C 12.542969 -5.835938 9.421875 -9.132812 9.421875 -13.988281 C 9.421875 -18.839844 12.542969 -22.078125 16.992188 -22.078125 C 19.535156 -22.078125 21.558594 -20.980469 22.886719 -19.074219 L 27.683594 -23.523438 C 25.835938 -26.125 22.367188 -28.609375 16.644531 -28.609375 C 8.035156 -28.609375 1.847656 -22.539062 1.847656 -13.988281 Z M 1.847656 -13.988281 "/></g></g></g><g fill="#000000" fill-opacity="1"><g transform="translate(538.603828, 893.697899)"><g><path d="M 30.921875 0 L 19.535156 -15.257812 L 30.574219 -27.914062 L 21.558594 -27.914062 L 10.980469 -15.488281 L 10.980469 -38.550781 L 3.640625 -38.550781 L 3.640625 0 L 10.980469 0 L 10.980469 -7.167969 L 14.332031 -10.75 L 21.730469 0 Z M 30.921875 0 "/></g></g></g><g fill="#000000" fill-opacity="1"><g transform="translate(569.524452, 893.697899)"><g><path d="M 35.949219 0 L 44.445312 -27.914062 L 36.816406 -27.914062 L 31.613281 -9.132812 L 25.488281 -27.914062 L 18.957031 -27.914062 L 12.832031 -9.132812 L 7.628906 -27.914062 L 0 -27.914062 L 8.496094 0 L 16.355469 0 L 22.25 -19.015625 L 28.148438 0 Z M 35.949219 0 "/></g></g></g><g fill="#000000" fill-opacity="1"><g transform="translate(613.969239, 893.697899)"><g><path d="M 27.742188 0 L 27.742188 -18.03125 C 27.742188 -26.066406 21.90625 -28.609375 15.546875 -28.609375 C 11.15625 -28.609375 6.761719 -27.222656 3.351562 -24.214844 L 6.125 -19.304688 C 8.496094 -21.5 11.269531 -22.597656 14.277344 -22.597656 C 17.972656 -22.597656 20.402344 -20.75 20.402344 -17.917969 L 20.402344 -14.042969 C 18.550781 -16.296875 15.257812 -17.453125 11.558594 -17.453125 C 7.109375 -17.453125 1.847656 -15.085938 1.847656 -8.554688 C 1.847656 -2.3125 7.109375 0.695312 11.558594 0.695312 C 15.199219 0.695312 18.496094 -0.636719 20.402344 -2.890625 L 20.402344 0 Z M 20.402344 -6.703125 C 19.1875 -5.085938 16.875 -4.277344 14.507812 -4.277344 C 11.617188 -4.277344 9.246094 -5.78125 9.246094 -8.378906 C 9.246094 -11.039062 11.617188 -12.597656 14.507812 -12.597656 C 16.875 -12.597656 19.1875 -11.789062 20.402344 -10.171875 Z M 20.402344 -6.703125 "/></g></g></g><g fill="#000000" fill-opacity="1"><g transform="translate(645.352233, 893.697899)"><g><path d="M 10.980469 0 L 10.980469 -18.4375 C 12.195312 -20.230469 15.429688 -21.558594 17.859375 -21.558594 C 18.667969 -21.558594 19.363281 -21.5 19.882812 -21.382812 L 19.882812 -28.550781 C 16.414062 -28.550781 12.945312 -26.585938 10.980469 -24.101562 L 10.980469 -27.914062 L 3.640625 -27.914062 L 3.640625 0 Z M 10.980469 0 "/></g></g></g><g fill="#000000" fill-opacity="1"><g transform="translate(666.158625, 893.697899)"><g><path d="M 30.226562 0 L 30.226562 -38.550781 L 22.828125 -38.550781 L 22.828125 -24.332031 C 20.632812 -27.164062 17.511719 -28.609375 14.21875 -28.609375 C 7.109375 -28.609375 1.847656 -23.0625 1.847656 -13.929688 C 1.847656 -4.625 7.167969 0.695312 14.21875 0.695312 C 17.570312 0.695312 20.632812 -0.808594 22.828125 -3.527344 L 22.828125 0 Z M 22.828125 -9.015625 C 21.558594 -7.167969 18.957031 -5.835938 16.472656 -5.835938 C 12.3125 -5.835938 9.421875 -9.132812 9.421875 -13.929688 C 9.421875 -18.785156 12.3125 -22.078125 16.472656 -22.078125 C 18.957031 -22.078125 21.558594 -20.75 22.828125 -18.898438 Z M 22.828125 -9.015625 "/></g></g></g><g fill="#000000" fill-opacity="1"><g transform="translate(700.026809, 893.697899)"><g/></g></g><g fill="#000000" fill-opacity="1"><g transform="translate(714.822478, 893.697899)"><g><path d="M 35.023438 0 L 26.355469 -14.679688 C 30.515625 -15.664062 34.792969 -19.304688 34.792969 -26.125 C 34.792969 -33.289062 29.878906 -38.550781 21.847656 -38.550781 L 3.816406 -38.550781 L 3.816406 0 L 12.023438 0 L 12.023438 -13.8125 L 18.03125 -13.8125 L 25.605469 0 Z M 26.414062 -26.179688 C 26.414062 -22.945312 23.925781 -20.863281 20.632812 -20.863281 L 12.023438 -20.863281 L 12.023438 -31.5 L 20.632812 -31.5 C 23.925781 -31.5 26.414062 -29.417969 26.414062 -26.179688 Z M 26.414062 -26.179688 "/></g></g></g><g fill="#000000" fill-opacity="1"><g transform="translate(751.985034, 893.697899)"><g><path d="M 1.847656 -13.988281 C 1.847656 -5.027344 8.265625 0.695312 16.761719 0.695312 C 21.09375 0.695312 25.429688 -0.578125 28.261719 -3.179688 L 25.027344 -7.917969 C 23.234375 -6.183594 20.171875 -5.144531 17.570312 -5.144531 C 12.832031 -5.144531 10 -8.089844 9.535156 -11.617188 L 30.285156 -11.617188 L 30.285156 -13.234375 C 30.285156 -22.367188 24.621094 -28.609375 16.296875 -28.609375 C 7.800781 -28.609375 1.847656 -22.078125 1.847656 -13.988281 Z M 16.296875 -22.773438 C 21.152344 -22.773438 23.003906 -19.246094 23.175781 -16.585938 L 9.421875 -16.585938 C 9.765625 -19.363281 11.734375 -22.773438 16.296875 -22.773438 Z M 16.296875 -22.773438 "/></g></g></g><g fill="#000000" fill-opacity="1"><g transform="translate(783.946002, 893.697899)"><g><path d="M 10.980469 0 L 10.980469 -38.550781 L 3.640625 -38.550781 L 3.640625 0 Z M 10.980469 0 "/></g></g></g><g fill="#000000" fill-opacity="1"><g transform="translate(798.568288, 893.697899)"><g><path d="M 27.742188 0 L 27.742188 -18.03125 C 27.742188 -26.066406 21.90625 -28.609375 15.546875 -28.609375 C 11.15625 -28.609375 6.761719 -27.222656 3.351562 -24.214844 L 6.125 -19.304688 C 8.496094 -21.5 11.269531 -22.597656 14.277344 -22.597656 C 17.972656 -22.597656 20.402344 -20.75 20.402344 -17.917969 L 20.402344 -14.042969 C 18.550781 -16.296875 15.257812 -17.453125 11.558594 -17.453125 C 7.109375 -17.453125 1.847656 -15.085938 1.847656 -8.554688 C 1.847656 -2.3125 7.109375 0.695312 11.558594 0.695312 C 15.199219 0.695312 18.496094 -0.636719 20.402344 -2.890625 L 20.402344 0 Z M 20.402344 -6.703125 C 19.1875 -5.085938 16.875 -4.277344 14.507812 -4.277344 C 11.617188 -4.277344 9.246094 -5.78125 9.246094 -8.378906 C 9.246094 -11.039062 11.617188 -12.597656 14.507812 -12.597656 C 16.875 -12.597656 19.1875 -11.789062 20.402344 -10.171875 Z M 20.402344 -6.703125 "/></g></g></g><g fill="#000000" fill-opacity="1"><g transform="translate(829.951283, 893.697899)"><g><path d="M 29.128906 0 L 19.128906 -14.332031 L 28.492188 -27.914062 L 20.285156 -27.914062 L 14.566406 -19.304688 L 8.785156 -27.914062 L 0.578125 -27.914062 L 9.882812 -14.332031 L 0 0 L 8.148438 0 L 14.566406 -9.421875 L 20.921875 0 Z M 29.128906 0 "/></g></g></g><g fill="#000000" fill-opacity="1"><g transform="translate(859.08025, 893.697899)"><g><path d="M 27.742188 0 L 27.742188 -18.03125 C 27.742188 -26.066406 21.90625 -28.609375 15.546875 -28.609375 C 11.15625 -28.609375 6.761719 -27.222656 3.351562 -24.214844 L 6.125 -19.304688 C 8.496094 -21.5 11.269531 -22.597656 14.277344 -22.597656 C 17.972656 -22.597656 20.402344 -20.75 20.402344 -17.917969 L 20.402344 -14.042969 C 18.550781 -16.296875 15.257812 -17.453125 11.558594 -17.453125 C 7.109375 -17.453125 1.847656 -15.085938 1.847656 -8.554688 C 1.847656 -2.3125 7.109375 0.695312 11.558594 0.695312 C 15.199219 0.695312 18.496094 -0.636719 20.402344 -2.890625 L 20.402344 0 Z M 20.402344 -6.703125 C 19.1875 -5.085938 16.875 -4.277344 14.507812 -4.277344 C 11.617188 -4.277344 9.246094 -5.78125 9.246094 -8.378906 C 9.246094 -11.039062 11.617188 -12.597656 14.507812 -12.597656 C 16.875 -12.597656 19.1875 -11.789062 20.402344 -10.171875 Z M 20.402344 -6.703125 "/></g></g></g><g fill="#000000" fill-opacity="1"><g transform="translate(890.463244, 893.697899)"><g><path d="M 13.003906 0.695312 C 16.066406 0.695312 18.03125 -0.117188 19.128906 -1.097656 L 17.570312 -6.648438 C 17.164062 -6.242188 16.125 -5.835938 15.027344 -5.835938 C 13.410156 -5.835938 12.484375 -7.167969 12.484375 -8.902344 L 12.484375 -21.5 L 18.148438 -21.5 L 18.148438 -27.914062 L 12.484375 -27.914062 L 12.484375 -35.542969 L 5.085938 -35.542969 L 5.085938 -27.914062 L 0.460938 -27.914062 L 0.460938 -21.5 L 5.085938 -21.5 L 5.085938 -6.933594 C 5.085938 -1.964844 7.859375 0.695312 13.003906 0.695312 Z M 13.003906 0.695312 "/></g></g></g><g fill="#000000" fill-opacity="1"><g transform="translate(909.99813, 893.697899)"><g><path d="M 7.28125 -32.019531 C 9.710938 -32.019531 11.675781 -33.984375 11.675781 -36.410156 C 11.675781 -38.839844 9.710938 -40.804688 7.28125 -40.804688 C 4.914062 -40.804688 2.890625 -38.839844 2.890625 -36.410156 C 2.890625 -33.984375 4.914062 -32.019531 7.28125 -32.019531 Z M 10.980469 0 L 10.980469 -27.914062 L 3.640625 -27.914062 L 3.640625 0 Z M 10.980469 0 "/></g></g></g><g fill="#000000" fill-opacity="1"><g transform="translate(924.620415, 893.697899)"><g><path d="M 16.585938 0.695312 C 25.835938 0.695312 31.382812 -6.011719 31.382812 -13.988281 C 31.382812 -21.90625 25.835938 -28.609375 16.585938 -28.609375 C 7.398438 -28.609375 1.847656 -21.90625 1.847656 -13.988281 C 1.847656 -6.011719 7.398438 0.695312 16.585938 0.695312 Z M 16.585938 -5.835938 C 12.023438 -5.835938 9.480469 -9.59375 9.480469 -13.988281 C 9.480469 -18.320312 12.023438 -22.078125 16.585938 -22.078125 C 21.152344 -22.078125 23.753906 -18.320312 23.753906 -13.988281 C 23.753906 -9.59375 21.152344 -5.835938 16.585938 -5.835938 Z M 16.585938 -5.835938 "/></g></g></g><g fill="#000000" fill-opacity="1"><g transform="translate(957.795067, 893.697899)"><g><path d="M 29.824219 0 L 29.824219 -19.707031 C 29.824219 -25.140625 26.875 -28.609375 20.75 -28.609375 C 16.183594 -28.609375 12.773438 -26.414062 10.980469 -24.273438 L 10.980469 -27.914062 L 3.640625 -27.914062 L 3.640625 0 L 10.980469 0 L 10.980469 -18.785156 C 12.195312 -20.460938 14.449219 -22.078125 17.339844 -22.078125 C 20.460938 -22.078125 22.484375 -20.75 22.484375 -16.875 L 22.484375 0 Z M 29.824219 0 "/></g></g></g><g fill="#000000" fill-opacity="1"><g transform="translate(991.258659, 893.697899)"><g><path d="M 2.714844 -23.636719 C 2.714844 -21.09375 4.855469 -18.957031 7.398438 -18.957031 C 9.941406 -18.957031 12.078125 -21.09375 12.078125 -23.636719 C 12.078125 -26.179688 9.941406 -28.320312 7.398438 -28.320312 C 4.855469 -28.320312 2.714844 -26.179688 2.714844 -23.636719 Z M 2.714844 -4.046875 C 2.714844 -1.503906 4.855469 0.636719 7.398438 0.636719 C 9.941406 0.636719 12.078125 -1.503906 12.078125 -4.046875 C 12.078125 -6.589844 9.941406 -8.726562 7.398438 -8.726562 C 4.855469 -8.726562 2.714844 -6.589844 2.714844 -4.046875 Z M 2.714844 -4.046875 "/></g></g></g><g fill="#000000" fill-opacity="1"><g transform="translate(92.011734, 973.89736)"><g><path d="M 22.195312 0.695312 C 30.980469 0.695312 35.832031 -3.988281 38.609375 -8.785156 L 31.558594 -12.195312 C 29.9375 -9.015625 26.46875 -6.589844 22.195312 -6.589844 C 15.488281 -6.589844 10.402344 -11.964844 10.402344 -19.246094 C 10.402344 -26.527344 15.488281 -31.902344 22.195312 -31.902344 C 26.46875 -31.902344 29.9375 -29.417969 31.558594 -26.296875 L 38.609375 -29.765625 C 35.890625 -34.5625 30.980469 -39.1875 22.195312 -39.1875 C 10.921875 -39.1875 1.964844 -31.09375 1.964844 -19.246094 C 1.964844 -7.398438 10.921875 0.695312 22.195312 0.695312 Z M 22.195312 0.695312 "/></g></g></g><g fill="#000000" fill-opacity="1"><g transform="translate(131.717304, 973.89736)"><g><path d="M 16.585938 0.695312 C 25.835938 0.695312 31.382812 -6.011719 31.382812 -13.988281 C 31.382812 -21.90625 25.835938 -28.609375 16.585938 -28.609375 C 7.398438 -28.609375 1.847656 -21.90625 1.847656 -13.988281 C 1.847656 -6.011719 7.398438 0.695312 16.585938 0.695312 Z M 16.585938 -5.835938 C 12.023438 -5.835938 9.480469 -9.59375 9.480469 -13.988281 C 9.480469 -18.320312 12.023438 -22.078125 16.585938 -22.078125 C 21.152344 -22.078125 23.753906 -18.320312 23.753906 -13.988281 C 23.753906 -9.59375 21.152344 -5.835938 16.585938 -5.835938 Z M 16.585938 -5.835938 "/></g></g></g><g fill="#000000" fill-opacity="1"><g transform="translate(164.891966, 973.89736)"><g><path d="M 29.824219 0 L 29.824219 -27.914062 L 22.484375 -27.914062 L 22.484375 -9.015625 C 21.210938 -7.398438 18.957031 -5.835938 16.125 -5.835938 C 13.003906 -5.835938 10.980469 -7.109375 10.980469 -10.980469 L 10.980469 -27.914062 L 3.640625 -27.914062 L 3.640625 -8.089844 C 3.640625 -2.660156 6.53125 0.695312 12.65625 0.695312 C 17.222656 0.695312 20.574219 -1.386719 22.484375 -3.527344 L 22.484375 0 Z M 29.824219 0 "/></g></g></g><g fill="#000000" fill-opacity="1"><g transform="translate(198.355604, 973.89736)"><g><path d="M 29.824219 0 L 29.824219 -19.707031 C 29.824219 -25.140625 26.875 -28.609375 20.75 -28.609375 C 16.183594 -28.609375 12.773438 -26.414062 10.980469 -24.273438 L 10.980469 -27.914062 L 3.640625 -27.914062 L 3.640625 0 L 10.980469 0 L 10.980469 -18.785156 C 12.195312 -20.460938 14.449219 -22.078125 17.339844 -22.078125 C 20.460938 -22.078125 22.484375 -20.75 22.484375 -16.875 L 22.484375 0 Z M 29.824219 0 "/></g></g></g><g fill="#000000" fill-opacity="1"><g transform="translate(231.819243, 973.89736)"><g><path d="M 13.003906 0.695312 C 16.066406 0.695312 18.03125 -0.117188 19.128906 -1.097656 L 17.570312 -6.648438 C 17.164062 -6.242188 16.125 -5.835938 15.027344 -5.835938 C 13.410156 -5.835938 12.484375 -7.167969 12.484375 -8.902344 L 12.484375 -21.5 L 18.148438 -21.5 L 18.148438 -27.914062 L 12.484375 -27.914062 L 12.484375 -35.542969 L 5.085938 -35.542969 L 5.085938 -27.914062 L 0.460938 -27.914062 L 0.460938 -21.5 L 5.085938 -21.5 L 5.085938 -6.933594 C 5.085938 -1.964844 7.859375 0.695312 13.003906 0.695312 Z M 13.003906 0.695312 "/></g></g></g><g fill="#000000" fill-opacity="1"><g transform="translate(251.354151, 973.89736)"><g/></g></g><g fill="#000000" fill-opacity="1"><g transform="translate(266.14982, 973.89736)"><g><path d="M 30.226562 0 L 30.226562 -38.550781 L 22.828125 -38.550781 L 22.828125 -24.332031 C 20.632812 -27.164062 17.511719 -28.609375 14.21875 -28.609375 C 7.109375 -28.609375 1.847656 -23.0625 1.847656 -13.929688 C 1.847656 -4.625 7.167969 0.695312 14.21875 0.695312 C 17.570312 0.695312 20.632812 -0.808594 22.828125 -3.527344 L 22.828125 0 Z M 22.828125 -9.015625 C 21.558594 -7.167969 18.957031 -5.835938 16.472656 -5.835938 C 12.3125 -5.835938 9.421875 -9.132812 9.421875 -13.929688 C 9.421875 -18.785156 12.3125 -22.078125 16.472656 -22.078125 C 18.957031 -22.078125 21.558594 -20.75 22.828125 -18.898438 Z M 22.828125 -9.015625 "/></g></g></g><g fill="#000000" fill-opacity="1"><g transform="translate(300.018015, 973.89736)"><g><path d="M 16.585938 0.695312 C 25.835938 0.695312 31.382812 -6.011719 31.382812 -13.988281 C 31.382812 -21.90625 25.835938 -28.609375 16.585938 -28.609375 C 7.398438 -28.609375 1.847656 -21.90625 1.847656 -13.988281 C 1.847656 -6.011719 7.398438 0.695312 16.585938 0.695312 Z M 16.585938 -5.835938 C 12.023438 -5.835938 9.480469 -9.59375 9.480469 -13.988281 C 9.480469 -18.320312 12.023438 -22.078125 16.585938 -22.078125 C 21.152344 -22.078125 23.753906 -18.320312 23.753906 -13.988281 C 23.753906 -9.59375 21.152344 -5.835938 16.585938 -5.835938 Z M 16.585938 -5.835938 "/></g></g></g><g fill="#000000" fill-opacity="1"><g transform="translate(333.192666, 973.89736)"><g><path d="M 35.949219 0 L 44.445312 -27.914062 L 36.816406 -27.914062 L 31.613281 -9.132812 L 25.488281 -27.914062 L 18.957031 -27.914062 L 12.832031 -9.132812 L 7.628906 -27.914062 L 0 -27.914062 L 8.496094 0 L 16.355469 0 L 22.25 -19.015625 L 28.148438 0 Z M 35.949219 0 "/></g></g></g><g fill="#000000" fill-opacity="1"><g transform="translate(377.637452, 973.89736)"><g><path d="M 29.824219 0 L 29.824219 -19.707031 C 29.824219 -25.140625 26.875 -28.609375 20.75 -28.609375 C 16.183594 -28.609375 12.773438 -26.414062 10.980469 -24.273438 L 10.980469 -27.914062 L 3.640625 -27.914062 L 3.640625 0 L 10.980469 0 L 10.980469 -18.785156 C 12.195312 -20.460938 14.449219 -22.078125 17.339844 -22.078125 C 20.460938 -22.078125 22.484375 -20.75 22.484375 -16.875 L 22.484375 0 Z M 29.824219 0 "/></g></g></g><g fill="#000000" fill-opacity="1"><g transform="translate(411.10109, 973.89736)"><g/></g></g><g fill="#000000" fill-opacity="1"><g transform="translate(425.896759, 973.89736)"><g><path d="M 18.320312 -21.5 L 18.320312 -27.914062 L 12.65625 -27.914062 L 12.65625 -29.300781 C 12.65625 -31.960938 14.042969 -33.347656 16.125 -33.347656 C 16.992188 -33.347656 17.859375 -33.175781 18.496094 -32.769531 L 19.996094 -37.972656 C 18.667969 -38.664062 16.761719 -39.128906 14.679688 -39.128906 C 9.191406 -39.128906 5.257812 -35.488281 5.257812 -29.417969 L 5.257812 -27.914062 L 0.636719 -27.914062 L 0.636719 -21.5 L 5.257812 -21.5 L 5.257812 0 L 12.65625 0 L 12.65625 -21.5 Z M 18.320312 -21.5 "/></g></g></g><g fill="#000000" fill-opacity="1"><g transform="translate(444.795914, 973.89736)"><g><path d="M 10.980469 0 L 10.980469 -18.4375 C 12.195312 -20.230469 15.429688 -21.558594 17.859375 -21.558594 C 18.667969 -21.558594 19.363281 -21.5 19.882812 -21.382812 L 19.882812 -28.550781 C 16.414062 -28.550781 12.945312 -26.585938 10.980469 -24.101562 L 10.980469 -27.914062 L 3.640625 -27.914062 L 3.640625 0 Z M 10.980469 0 "/></g></g></g><g fill="#000000" fill-opacity="1"><g transform="translate(465.602329, 973.89736)"><g><path d="M 16.585938 0.695312 C 25.835938 0.695312 31.382812 -6.011719 31.382812 -13.988281 C 31.382812 -21.90625 25.835938 -28.609375 16.585938 -28.609375 C 7.398438 -28.609375 1.847656 -21.90625 1.847656 -13.988281 C 1.847656 -6.011719 7.398438 0.695312 16.585938 0.695312 Z M 16.585938 -5.835938 C 12.023438 -5.835938 9.480469 -9.59375 9.480469 -13.988281 C 9.480469 -18.320312 12.023438 -22.078125 16.585938 -22.078125 C 21.152344 -22.078125 23.753906 -18.320312 23.753906 -13.988281 C 23.753906 -9.59375 21.152344 -5.835938 16.585938 -5.835938 Z M 16.585938 -5.835938 "/></g></g></g><g fill="#000000" fill-opacity="1"><g transform="translate(498.77698, 973.89736)"><g><path d="M 45.660156 0 L 45.660156 -20.171875 C 45.660156 -25.894531 42.597656 -28.609375 37.453125 -28.609375 C 33.175781 -28.609375 29.476562 -26.066406 27.859375 -23.523438 C 26.816406 -26.703125 24.214844 -28.609375 20.113281 -28.609375 C 15.835938 -28.609375 12.136719 -25.949219 10.980469 -24.273438 L 10.980469 -27.914062 L 3.640625 -27.914062 L 3.640625 0 L 10.980469 0 L 10.980469 -18.785156 C 12.078125 -20.34375 14.21875 -22.078125 16.761719 -22.078125 C 19.765625 -22.078125 20.921875 -20.230469 20.921875 -17.628906 L 20.921875 0 L 28.320312 0 L 28.320312 -18.839844 C 29.359375 -20.34375 31.5 -22.078125 34.101562 -22.078125 C 37.105469 -22.078125 38.261719 -20.230469 38.261719 -17.628906 L 38.261719 0 Z M 45.660156 0 "/></g></g></g><g fill="#000000" fill-opacity="1"><g transform="translate(548.018808, 973.89736)"><g/></g></g><g fill="#000000" fill-opacity="1"><g transform="translate(562.814477, 973.89736)"><g><path d="M 19.941406 0 L 19.941406 -38.550781 L 12.773438 -38.550781 L 0.636719 -26.355469 L 5.316406 -21.441406 L 11.675781 -27.972656 L 11.675781 0 Z M 19.941406 0 "/></g></g></g><g fill="#000000" fill-opacity="1"><g transform="translate(586.568475, 973.89736)"><g><path d="M 1.964844 -19.246094 C 1.964844 -9.304688 6.878906 0.695312 17.917969 0.695312 C 28.898438 0.695312 33.867188 -9.304688 33.867188 -19.246094 C 33.867188 -29.1875 28.898438 -39.128906 17.917969 -39.128906 C 6.878906 -39.128906 1.964844 -29.1875 1.964844 -19.246094 Z M 25.488281 -19.246094 C 25.488281 -12.136719 23.40625 -6.589844 17.917969 -6.589844 C 12.367188 -6.589844 10.289062 -12.136719 10.289062 -19.246094 C 10.289062 -26.355469 12.367188 -31.84375 17.917969 -31.84375 C 23.40625 -31.84375 25.488281 -26.355469 25.488281 -19.246094 Z M 25.488281 -19.246094 "/></g></g></g><g fill="#000000" fill-opacity="1"><g transform="translate(622.401744, 973.89736)"><g><path d="M 6.472656 7.917969 C 10 5.375 12.425781 1.503906 12.425781 -2.832031 C 12.425781 -6.589844 9.941406 -8.726562 7.222656 -8.726562 C 4.796875 -8.726562 2.714844 -6.648438 2.714844 -4.105469 C 2.714844 -1.617188 4.449219 0.117188 6.648438 0.117188 C 7.050781 0.117188 7.570312 0 7.746094 -0.0585938 C 7.28125 1.964844 5.144531 4.335938 3.292969 5.316406 Z M 6.472656 7.917969 "/></g></g></g><g fill="#000000" fill-opacity="1"><g transform="translate(637.197413, 973.89736)"><g/></g></g><g fill="#000000" fill-opacity="1"><g transform="translate(651.993082, 973.89736)"><g><path d="M 18.320312 -21.5 L 18.320312 -27.914062 L 12.65625 -27.914062 L 12.65625 -29.300781 C 12.65625 -31.960938 14.042969 -33.347656 16.125 -33.347656 C 16.992188 -33.347656 17.859375 -33.175781 18.496094 -32.769531 L 19.996094 -37.972656 C 18.667969 -38.664062 16.761719 -39.128906 14.679688 -39.128906 C 9.191406 -39.128906 5.257812 -35.488281 5.257812 -29.417969 L 5.257812 -27.914062 L 0.636719 -27.914062 L 0.636719 -21.5 L 5.257812 -21.5 L 5.257812 0 L 12.65625 0 L 12.65625 -21.5 Z M 18.320312 -21.5 "/></g></g></g><g fill="#000000" fill-opacity="1"><g transform="translate(670.892214, 973.89736)"><g><path d="M 16.585938 0.695312 C 25.835938 0.695312 31.382812 -6.011719 31.382812 -13.988281 C 31.382812 -21.90625 25.835938 -28.609375 16.585938 -28.609375 C 7.398438 -28.609375 1.847656 -21.90625 1.847656 -13.988281 C 1.847656 -6.011719 7.398438 0.695312 16.585938 0.695312 Z M 16.585938 -5.835938 C 12.023438 -5.835938 9.480469 -9.59375 9.480469 -13.988281 C 9.480469 -18.320312 12.023438 -22.078125 16.585938 -22.078125 C 21.152344 -22.078125 23.753906 -18.320312 23.753906 -13.988281 C 23.753906 -9.59375 21.152344 -5.835938 16.585938 -5.835938 Z M 16.585938 -5.835938 "/></g></g></g><g fill="#000000" fill-opacity="1"><g transform="translate(704.066865, 973.89736)"><g><path d="M 1.847656 -13.988281 C 1.847656 -5.375 8.035156 0.695312 16.644531 0.695312 C 22.367188 0.695312 25.835938 -1.792969 27.683594 -4.390625 L 22.886719 -8.84375 C 21.558594 -6.992188 19.535156 -5.835938 16.992188 -5.835938 C 12.542969 -5.835938 9.421875 -9.132812 9.421875 -13.988281 C 9.421875 -18.839844 12.542969 -22.078125 16.992188 -22.078125 C 19.535156 -22.078125 21.558594 -20.980469 22.886719 -19.074219 L 27.683594 -23.523438 C 25.835938 -26.125 22.367188 -28.609375 16.644531 -28.609375 C 8.035156 -28.609375 1.847656 -22.539062 1.847656 -13.988281 Z M 1.847656 -13.988281 "/></g></g></g><g fill="#000000" fill-opacity="1"><g transform="translate(732.906845, 973.89736)"><g><path d="M 29.824219 0 L 29.824219 -27.914062 L 22.484375 -27.914062 L 22.484375 -9.015625 C 21.210938 -7.398438 18.957031 -5.835938 16.125 -5.835938 C 13.003906 -5.835938 10.980469 -7.109375 10.980469 -10.980469 L 10.980469 -27.914062 L 3.640625 -27.914062 L 3.640625 -8.089844 C 3.640625 -2.660156 6.53125 0.695312 12.65625 0.695312 C 17.222656 0.695312 20.574219 -1.386719 22.484375 -3.527344 L 22.484375 0 Z M 29.824219 0 "/></g></g></g><g fill="#000000" fill-opacity="1"><g transform="translate(766.370484, 973.89736)"><g><path d="M 1.214844 -3.640625 C 4.160156 -0.925781 8.84375 0.695312 13.699219 0.695312 C 21.441406 0.695312 25.777344 -3.121094 25.777344 -8.265625 C 25.777344 -15.199219 19.363281 -16.472656 14.566406 -17.398438 C 11.445312 -18.03125 9.246094 -18.667969 9.246094 -20.402344 C 9.246094 -22.019531 10.980469 -23.003906 13.640625 -23.003906 C 17.050781 -23.003906 20.230469 -21.558594 21.90625 -19.765625 L 24.792969 -24.792969 C 22.078125 -26.992188 18.320312 -28.609375 13.582031 -28.609375 C 6.242188 -28.609375 2.136719 -24.503906 2.136719 -19.824219 C 2.136719 -13.175781 8.324219 -12.023438 13.121094 -11.097656 C 16.296875 -10.460938 18.726562 -9.765625 18.726562 -7.800781 C 18.726562 -6.070312 17.222656 -4.96875 14.042969 -4.96875 C 10.578125 -4.96875 6.414062 -6.878906 4.390625 -8.785156 Z M 1.214844 -3.640625 "/></g></g></g><g fill="#000000" fill-opacity="1"><g transform="translate(793.939003, 973.89736)"><g><path d="M 7.28125 -32.019531 C 9.710938 -32.019531 11.675781 -33.984375 11.675781 -36.410156 C 11.675781 -38.839844 9.710938 -40.804688 7.28125 -40.804688 C 4.914062 -40.804688 2.890625 -38.839844 2.890625 -36.410156 C 2.890625 -33.984375 4.914062 -32.019531 7.28125 -32.019531 Z M 10.980469 0 L 10.980469 -27.914062 L 3.640625 -27.914062 L 3.640625 0 Z M 10.980469 0 "/></g></g></g><g fill="#000000" fill-opacity="1"><g transform="translate(808.561289, 973.89736)"><g><path d="M 29.824219 0 L 29.824219 -19.707031 C 29.824219 -25.140625 26.875 -28.609375 20.75 -28.609375 C 16.183594 -28.609375 12.773438 -26.414062 10.980469 -24.273438 L 10.980469 -27.914062 L 3.640625 -27.914062 L 3.640625 0 L 10.980469 0 L 10.980469 -18.785156 C 12.195312 -20.460938 14.449219 -22.078125 17.339844 -22.078125 C 20.460938 -22.078125 22.484375 -20.75 22.484375 -16.875 L 22.484375 0 Z M 29.824219 0 "/></g></g></g><g fill="#000000" fill-opacity="1"><g transform="translate(842.024927, 973.89736)"><g><path d="M 3.0625 7.167969 C 6.53125 10.230469 10.289062 11.328125 15.085938 11.328125 C 21.960938 11.328125 30.167969 8.726562 30.167969 -1.90625 L 30.167969 -27.914062 L 22.773438 -27.914062 L 22.773438 -24.332031 C 20.519531 -27.164062 17.511719 -28.609375 14.160156 -28.609375 C 7.109375 -28.609375 1.847656 -23.523438 1.847656 -14.390625 C 1.847656 -5.085938 7.167969 -0.171875 14.160156 -0.171875 C 17.570312 -0.171875 20.574219 -1.792969 22.773438 -4.566406 L 22.773438 -1.734375 C 22.773438 3.757812 18.609375 5.316406 15.085938 5.316406 C 11.558594 5.316406 8.613281 4.335938 6.359375 1.847656 Z M 22.773438 -9.882812 C 21.558594 -8.089844 18.898438 -6.703125 16.472656 -6.703125 C 12.3125 -6.703125 9.421875 -9.59375 9.421875 -14.390625 C 9.421875 -19.1875 12.3125 -22.078125 16.472656 -22.078125 C 18.898438 -22.078125 21.558594 -20.75 22.773438 -18.898438 Z M 22.773438 -9.882812 "/></g></g></g><g fill="#000000" fill-opacity="1"><g transform="translate(875.835332, 973.89736)"><g/></g></g><g fill="#000000" fill-opacity="1"><g transform="translate(890.631001, 973.89736)"><g><path d="M 16.585938 0.695312 C 25.835938 0.695312 31.382812 -6.011719 31.382812 -13.988281 C 31.382812 -21.90625 25.835938 -28.609375 16.585938 -28.609375 C 7.398438 -28.609375 1.847656 -21.90625 1.847656 -13.988281 C 1.847656 -6.011719 7.398438 0.695312 16.585938 0.695312 Z M 16.585938 -5.835938 C 12.023438 -5.835938 9.480469 -9.59375 9.480469 -13.988281 C 9.480469 -18.320312 12.023438 -22.078125 16.585938 -22.078125 C 21.152344 -22.078125 23.753906 -18.320312 23.753906 -13.988281 C 23.753906 -9.59375 21.152344 -5.835938 16.585938 -5.835938 Z M 16.585938 -5.835938 "/></g></g></g><g fill="#000000" fill-opacity="1"><g transform="translate(923.805652, 973.89736)"><g><path d="M 29.824219 0 L 29.824219 -19.707031 C 29.824219 -25.140625 26.875 -28.609375 20.75 -28.609375 C 16.183594 -28.609375 12.773438 -26.414062 10.980469 -24.273438 L 10.980469 -27.914062 L 3.640625 -27.914062 L 3.640625 0 L 10.980469 0 L 10.980469 -18.785156 C 12.195312 -20.460938 14.449219 -22.078125 17.339844 -22.078125 C 20.460938 -22.078125 22.484375 -20.75 22.484375 -16.875 L 22.484375 0 Z M 29.824219 0 "/></g></g></g><g fill="#000000" fill-opacity="1"><g transform="translate(957.269336, 973.89736)"><g/></g></g><g fill="#000000" fill-opacity="1"><g transform="translate(972.065005, 973.89736)"><g><path d="M 1.847656 -13.988281 C 1.847656 -5.027344 8.265625 0.695312 16.761719 0.695312 C 21.09375 0.695312 25.429688 -0.578125 28.261719 -3.179688 L 25.027344 -7.917969 C 23.234375 -6.183594 20.171875 -5.144531 17.570312 -5.144531 C 12.832031 -5.144531 10 -8.089844 9.535156 -11.617188 L 30.285156 -11.617188 L 30.285156 -13.234375 C 30.285156 -22.367188 24.621094 -28.609375 16.296875 -28.609375 C 7.800781 -28.609375 1.847656 -22.078125 1.847656 -13.988281 Z M 16.296875 -22.773438 C 21.152344 -22.773438 23.003906 -19.246094 23.175781 -16.585938 L 9.421875 -16.585938 C 9.765625 -19.363281 11.734375 -22.773438 16.296875 -22.773438 Z M 16.296875 -22.773438 "/></g></g></g><g fill="#000000" fill-opacity="1"><g transform="translate(1004.025973, 973.89736)"><g><path d="M 27.742188 0 L 27.742188 -18.03125 C 27.742188 -26.066406 21.90625 -28.609375 15.546875 -28.609375 C 11.15625 -28.609375 6.761719 -27.222656 3.351562 -24.214844 L 6.125 -19.304688 C 8.496094 -21.5 11.269531 -22.597656 14.277344 -22.597656 C 17.972656 -22.597656 20.402344 -20.75 20.402344 -17.917969 L 20.402344 -14.042969 C 18.550781 -16.296875 15.257812 -17.453125 11.558594 -17.453125 C 7.109375 -17.453125 1.847656 -15.085938 1.847656 -8.554688 C 1.847656 -2.3125 7.109375 0.695312 11.558594 0.695312 C 15.199219 0.695312 18.496094 -0.636719 20.402344 -2.890625 L 20.402344 0 Z M 20.402344 -6.703125 C 19.1875 -5.085938 16.875 -4.277344 14.507812 -4.277344 C 11.617188 -4.277344 9.246094 -5.78125 9.246094 -8.378906 C 9.246094 -11.039062 11.617188 -12.597656 14.507812 -12.597656 C 16.875 -12.597656 19.1875 -11.789062 20.402344 -10.171875 Z M 20.402344 -6.703125 "/></g></g></g><g fill="#000000" fill-opacity="1"><g transform="translate(1035.408968, 973.89736)"><g><path d="M 1.847656 -13.988281 C 1.847656 -5.375 8.035156 0.695312 16.644531 0.695312 C 22.367188 0.695312 25.835938 -1.792969 27.683594 -4.390625 L 22.886719 -8.84375 C 21.558594 -6.992188 19.535156 -5.835938 16.992188 -5.835938 C 12.542969 -5.835938 9.421875 -9.132812 9.421875 -13.988281 C 9.421875 -18.839844 12.542969 -22.078125 16.992188 -22.078125 C 19.535156 -22.078125 21.558594 -20.980469 22.886719 -19.074219 L 27.683594 -23.523438 C 25.835938 -26.125 22.367188 -28.609375 16.644531 -28.609375 C 8.035156 -28.609375 1.847656 -22.539062 1.847656 -13.988281 Z M 1.847656 -13.988281 "/></g></g></g><g fill="#000000" fill-opacity="1"><g transform="translate(1064.248948, 973.89736)"><g><path d="M 29.878906 0 L 29.878906 -19.824219 C 29.878906 -25.257812 26.933594 -28.609375 20.804688 -28.609375 C 16.242188 -28.609375 12.773438 -26.414062 10.980469 -24.273438 L 10.980469 -38.550781 L 3.640625 -38.550781 L 3.640625 0 L 10.980469 0 L 10.980469 -18.785156 C 12.253906 -20.460938 14.507812 -22.078125 17.339844 -22.078125 C 20.519531 -22.078125 22.539062 -20.863281 22.539062 -16.992188 L 22.539062 0 Z M 29.878906 0 "/></g></g></g><g fill="#000000" fill-opacity="1"><g transform="translate(493.489207, 1054.096821)"><g><path d="M 29.824219 0 L 29.824219 -19.707031 C 29.824219 -25.140625 26.875 -28.609375 20.75 -28.609375 C 16.183594 -28.609375 12.773438 -26.414062 10.980469 -24.273438 L 10.980469 -27.914062 L 3.640625 -27.914062 L 3.640625 0 L 10.980469 0 L 10.980469 -18.785156 C 12.195312 -20.460938 14.449219 -22.078125 17.339844 -22.078125 C 20.460938 -22.078125 22.484375 -20.75 22.484375 -16.875 L 22.484375 0 Z M 29.824219 0 "/></g></g></g><g fill="#000000" fill-opacity="1"><g transform="translate(526.952845, 1054.096821)"><g><path d="M 29.824219 0 L 29.824219 -27.914062 L 22.484375 -27.914062 L 22.484375 -9.015625 C 21.210938 -7.398438 18.957031 -5.835938 16.125 -5.835938 C 13.003906 -5.835938 10.980469 -7.109375 10.980469 -10.980469 L 10.980469 -27.914062 L 3.640625 -27.914062 L 3.640625 -8.089844 C 3.640625 -2.660156 6.53125 0.695312 12.65625 0.695312 C 17.222656 0.695312 20.574219 -1.386719 22.484375 -3.527344 L 22.484375 0 Z M 29.824219 0 "/></g></g></g><g fill="#000000" fill-opacity="1"><g transform="translate(560.416484, 1054.096821)"><g><path d="M 45.660156 0 L 45.660156 -20.171875 C 45.660156 -25.894531 42.597656 -28.609375 37.453125 -28.609375 C 33.175781 -28.609375 29.476562 -26.066406 27.859375 -23.523438 C 26.816406 -26.703125 24.214844 -28.609375 20.113281 -28.609375 C 15.835938 -28.609375 12.136719 -25.949219 10.980469 -24.273438 L 10.980469 -27.914062 L 3.640625 -27.914062 L 3.640625 0 L 10.980469 0 L 10.980469 -18.785156 C 12.078125 -20.34375 14.21875 -22.078125 16.761719 -22.078125 C 19.765625 -22.078125 20.921875 -20.230469 20.921875 -17.628906 L 20.921875 0 L 28.320312 0 L 28.320312 -18.839844 C 29.359375 -20.34375 31.5 -22.078125 34.101562 -22.078125 C 37.105469 -22.078125 38.261719 -20.230469 38.261719 -17.628906 L 38.261719 0 Z M 45.660156 0 "/></g></g></g><g fill="#000000" fill-opacity="1"><g transform="translate(609.658323, 1054.096821)"><g><path d="M 10.980469 0 L 10.980469 -3.527344 C 13.175781 -0.808594 16.242188 0.695312 19.59375 0.695312 C 26.644531 0.695312 31.960938 -4.625 31.960938 -13.929688 C 31.960938 -23.0625 26.703125 -28.609375 19.59375 -28.609375 C 16.296875 -28.609375 13.175781 -27.164062 10.980469 -24.332031 L 10.980469 -38.550781 L 3.640625 -38.550781 L 3.640625 0 Z M 10.980469 -18.839844 C 12.195312 -20.691406 14.910156 -22.078125 17.28125 -22.078125 C 21.558594 -22.078125 24.390625 -18.785156 24.390625 -13.929688 C 24.390625 -9.074219 21.558594 -5.835938 17.28125 -5.835938 C 14.910156 -5.835938 12.195312 -7.167969 10.980469 -8.957031 Z M 10.980469 -18.839844 "/></g></g></g><g fill="#000000" fill-opacity="1"><g transform="translate(643.52653, 1054.096821)"><g><path d="M 1.847656 -13.988281 C 1.847656 -5.027344 8.265625 0.695312 16.761719 0.695312 C 21.09375 0.695312 25.429688 -0.578125 28.261719 -3.179688 L 25.027344 -7.917969 C 23.234375 -6.183594 20.171875 -5.144531 17.570312 -5.144531 C 12.832031 -5.144531 10 -8.089844 9.535156 -11.617188 L 30.285156 -11.617188 L 30.285156 -13.234375 C 30.285156 -22.367188 24.621094 -28.609375 16.296875 -28.609375 C 7.800781 -28.609375 1.847656 -22.078125 1.847656 -13.988281 Z M 16.296875 -22.773438 C 21.152344 -22.773438 23.003906 -19.246094 23.175781 -16.585938 L 9.421875 -16.585938 C 9.765625 -19.363281 11.734375 -22.773438 16.296875 -22.773438 Z M 16.296875 -22.773438 "/></g></g></g><g fill="#000000" fill-opacity="1"><g transform="translate(675.487487, 1054.096821)"><g><path d="M 10.980469 0 L 10.980469 -18.4375 C 12.195312 -20.230469 15.429688 -21.558594 17.859375 -21.558594 C 18.667969 -21.558594 19.363281 -21.5 19.882812 -21.382812 L 19.882812 -28.550781 C 16.414062 -28.550781 12.945312 -26.585938 10.980469 -24.101562 L 10.980469 -27.914062 L 3.640625 -27.914062 L 3.640625 0 Z M 10.980469 0 "/></g></g></g></svg>